<?xml version="1.0" encoding="utf-8"?>
<!-- Generator: Adobe Illustrator 25.0.0, SVG Export Plug-In . SVG Version: 6.00 Build 0)  -->
<svg version="1.1" id="Layer_1" xmlns="http://www.w3.org/2000/svg" xmlns:xlink="http://www.w3.org/1999/xlink" x="0px" y="0px"
	 viewBox="0 0 233 183.9" style="enable-background:new 0 0 233 183.9;" xml:space="preserve">
<style type="text/css">
	.st0{fill:#62A450;}
	.st1{fill:#568F4C;}
	.st2{fill:#FFFFFF;stroke:#383838;stroke-width:1.5;stroke-miterlimit:10;}
	.st3{opacity:0.51;fill:#FFFFFF;stroke:#939598;stroke-miterlimit:10;enable-background:new    ;}
	.st4{fill:#757D7F;}
	.st5{fill:#7D8586;}
	.st6{fill:#4E595B;}
	.st7{fill:#6EBF4E;}
	.st8{fill:#545F60;}
	.st9{fill:#556062;}
	.st10{fill:#586264;}
	.st11{fill:#566163;}
	.st12{fill:#555F60;}
	.st13{fill:#596466;}
	.st14{fill:#6A7374;}
	.st15{fill:#505C5E;}
	.st16{fill:#FFFFFF;}
	.st17{fill:#F7F9FA;}
	.st18{fill:#75C157;}
	.st19{fill:#69B14F;}
	.st20{fill:#474748;}
	.st21{fill:#6E6F72;}
	.st22{font-family:'MyriadPro-Regular';}
	.st23{font-size:12px;}
	.st24{letter-spacing:33;}
	.st25{font-size:21px;}
</style>
<g id="Layer_2_1_">
	<g id="PRINT1">
		<polygon class="st0" points="233,113.9 0,113.9 10,94.9 0,75.9 233,75.9 223,94.9 		"/>
		<path class="st1" d="M16.5,75.9l-1.1,20.5c-0.1,0.9,0.4,1.8,1.1,2.4l19.6,15.1h9.2V78.8l-22.6-2.9H16.5z"/>
		<path class="st1" d="M218,75.9l1.2,20.5c0.1,0.9-0.4,1.8-1.1,2.4l-19.6,15.1h-9.2V78.8l22.7-2.9L218,75.9z"/>
		<polygon class="st2" points="36.9,46.4 36.9,137.5 115.8,183 194.6,137.5 194.6,46.4 115.8,0.9 		"/>
		<polygon class="st3" points="43.3,50.2 43.3,133.7 115.6,175.5 187.9,133.7 187.9,50.2 115.6,8.4 		"/>
		<path class="st4" d="M148.6,45.3c0,0.2-0.1,0.3-0.3,0.3c-0.2,0-0.3-0.1-0.3-0.2c0,0,0-0.1,0-0.1c0-0.1,0.1-0.3,0.3-0.3
			c0,0,0,0,0,0C148.5,45.1,148.6,45.2,148.6,45.3z"/>
		<path class="st5" d="M131.3,45.7c-0.2,0-0.3-0.1-0.3-0.3c0,0,0,0,0,0c0-0.1,0.1-0.3,0.2-0.3c0,0,0,0,0.1,0c0.1,0,0.3,0.1,0.3,0.3
			c0,0,0,0,0,0C131.6,45.5,131.5,45.7,131.3,45.7C131.3,45.7,131.3,45.7,131.3,45.7z"/>
		<path class="st6" d="M76,43.6c0.7-0.3,1.4-0.7,2-1.1c1.3-0.7,2.7-1.5,4-2.3c0.3-0.2,0.6-0.2,0.9,0c1.9,1.1,3.7,2.2,5.6,3.2
			c0.3,0.1,0.5,0.5,0.5,0.8c0,0.9,0.2,2-0.1,2.8s-1.5,1-2.3,1.5c-0.5,0.4-1.2,0.4-1.7,0c-1.5-0.9-3-1.8-4.5-2.6
			c-0.4-0.2-0.5-0.3,0-0.6c0.6-0.3,1.2-0.6,1.7-1c0.2-0.2,0.6-0.2,0.8,0c0.7,0.4,1.3,0.8,2,1.2c0.3,0.3,0.7,0.2,1,0
			c0,0,0.1-0.1,0.1-0.1c-1.1-0.7-2.2-1.3-3.4-1.9c-0.3-0.2-0.5,0.1-0.7,0.2L76,47V43.6z"/>
		<path class="st7" d="M76,47.8l2.8-1.6c0.2-0.1,0.4-0.3,0.7-0.1l5.6,3.2l-2.5,1.4c-0.2,0.1-0.3,0-0.5-0.1c-0.8-0.4-1.5-0.8-2.2-1.3
			c-0.2-0.1-0.5-0.1-0.7,0c-0.2,0.2-0.2,0.3,0,0.4c1,0.6,2,1.2,3,1.8c0.3,0.2,0.4,0,0.6-0.1l5.4-3.2c0.7-0.4,0.7-0.4,0.7,0.4
			c0.1,0.8,0.1,1.7-0.1,2.5c-0.3,0.7-1.4,0.9-2.1,1.4c-1.2,0.7-2.5,1.4-3.7,2.2c-0.3,0.2-0.8,0.2-1.1,0c-2-1.2-4-2.3-6-3.4L76,47.8z
			"/>
		<path class="st8" d="M155.6,46.5c-0.5,0.9-0.9,2-1.3,2.9c-0.1,0.2-0.1,0.3-0.2,0.5c-0.1,0-0.2,0-0.3,0c-0.1,0-0.1-0.2,0-0.2
			c0.7-1.1-0.2-1.9-0.4-2.9c-0.1-0.2-0.5-0.5-0.1-0.7s0.4,0.3,0.5,0.5c0.2,0.5,0.4,1,0.6,1.6c0.3-0.7,0.5-1.2,0.7-1.8
			c0.1-0.3,0.2-0.5,0.6-0.4L155.6,46.5z"/>
		<path class="st6" d="M96.2,50.2v3.3c0,0.6-0.4,0.9-1,0.7C95,54.1,95,53.9,95,53.8c0-3.2,0-6.5,0-9.7c0-0.4,0.2-0.5,0.5-0.4
			s0.7-0.2,0.7,0.4c0,0.2-0.1,0.3,0.1,0.5c1.9-1.4,4-1.3,5.2,0.1c1.4,1.6,1.4,3.9,0,5.5C100.2,51.6,98.2,51.7,96.2,50.2z"/>
		<path class="st6" d="M108.1,47.4c0-1.5,0.8-2.9,2.2-3.5c1.5-0.6,3.1-0.3,4.2,0.8c0.2,0.2,0.3,0.4,0.4,0.6c0.1,0.2,0.5,0.6,0.2,0.8
			c-0.4,0.3-0.9,0.2-1.2-0.2c0,0,0,0,0,0c-0.5-0.9-1.5-1.4-2.5-1.1c-1,0.1-1.9,0.9-2.1,1.9c-0.5,1.4,0.3,3,1.7,3.5
			c0.3,0.1,0.6,0.2,1,0.2c0.8,0,1.5-0.4,1.9-1.1c0.3-0.6,0.8-0.4,1.2-0.4s0.2,0.3,0.1,0.4c-0.3,0.7-0.8,1.2-1.4,1.6
			c-1.2,0.7-2.7,0.7-3.9,0.1C108.7,50.1,108,48.8,108.1,47.4z"/>
		<path class="st6" d="M104.6,48v-2.4c0-0.8,0-0.9-0.9-0.8c-0.6,0-0.8-0.2-0.7-0.7c0-0.3,0.2-0.3,0.4-0.3s0.4,0,0.7,0
			s0.5-0.1,0.5-0.5s0-1.1,0-1.6s0.1-0.7,0.6-0.6s0.6,0.2,0.6,0.6s0,1.1,0,1.6s0.1,0.6,0.5,0.5c0.2,0,0.4,0,0.7,0
			c0.4,0,0.6,0.1,0.6,0.6s-0.3,0.5-0.6,0.5c-1.2,0-1.2,0-1.2,1.2c0,1.6,0,3.2,0,4.8c0,0.5-0.2,0.5-0.6,0.5s-0.6-0.1-0.6-0.6
			C104.6,49.8,104.6,48.9,104.6,48z"/>
		<path class="st9" d="M138.4,46c0.4,0,0.8,0.2,1,0.5c0.3,0.3,0.4,0.6,0.3,1c-0.1,0.4-0.5,0.2-0.8,0.2s-0.7,0-1.1,0
			c-0.1,0-0.3-0.1-0.4,0.1s0.1,0.2,0.2,0.3c0.3,0.4,0.9,0.5,1.3,0.1c0,0,0,0,0.1,0c0.2-0.1,0.4-0.3,0.6-0.1s-0.1,0.4-0.3,0.5
			c-0.5,0.4-1.2,0.4-1.7,0c-0.5-0.4-0.6-1-0.4-1.6C137.1,46.4,137.7,45.9,138.4,46z"/>
		<path class="st10" d="M125,47.5c0,0.2,0,0.4,0,0.6c-0.1,0.3,0.3,1.1-0.6,0.6c-0.1,0-0.2,0.1-0.3,0.2c-0.6,0.2-1.2-0.1-1.5-0.6
			c0-0.1-0.1-0.2-0.1-0.3c-0.1-0.5,0-1.1,0-1.6c0-0.1,0-0.3,0.2-0.3s0.3,0.1,0.3,0.3v1.3c0,0.5,0.2,0.8,0.8,0.8
			c0.4,0,0.8-0.3,0.8-0.7c0,0,0-0.1,0-0.1c0-0.3,0-0.6,0-0.9s-0.2-0.6,0.2-0.7s0.2,0.4,0.2,0.7C125,47,125,47.3,125,47.5z"/>
		<path class="st9" d="M145.3,48.9c-0.4,0-0.8-0.1-1.1-0.4c-0.1-0.1-0.2-0.3-0.1-0.5s0.3,0,0.4,0.2c0.2,0.4,0.6,0.4,0.9,0.3
			c0.2,0,0.4-0.1,0.4-0.3c0-0.2-0.1-0.3-0.3-0.4c-0.3-0.1-0.6-0.2-0.9-0.2s-0.6-0.3-0.6-0.8c0-0.4,0.4-0.7,0.8-0.7
			c0.5-0.1,0.9,0,1.3,0.3c0.1,0.1,0.2,0.2,0.1,0.4s-0.3,0.1-0.4-0.1c-0.2-0.2-0.5-0.4-0.8-0.3c-0.2,0-0.4,0-0.5,0.3s0.1,0.3,0.4,0.4
			l0.5,0.1c0.5,0.1,1,0.2,0.9,0.9S145.9,48.9,145.3,48.9z"/>
		<path class="st11" d="M126.8,47.4v-0.6c0-0.6,0-0.5,0.6-0.5c0.1,0,0.2-0.1,0.3-0.2c0.6-0.3,1.2,0,1.5,0.5c0.1,0.1,0.1,0.3,0.1,0.5
			c0,0.5,0,1,0,1.5c0,0.1,0,0.3-0.2,0.3s-0.2-0.1-0.2-0.3c0-0.4,0-0.9,0-1.3s-0.2-0.8-0.8-0.8s-0.8,0.4-0.8,0.9s0,0.8,0,1.2
			c0,0.2,0,0.3-0.2,0.3s-0.2-0.1-0.2-0.2C126.9,48.2,126.9,47.8,126.8,47.4L126.8,47.4z"/>
		<path class="st12" d="M134.3,48.3c0.3-0.8,0.5-1.3,0.7-1.9c0.1-0.2,0.2-0.5,0.5-0.3s0,0.3,0,0.5c-0.2,0.6-0.5,1.2-0.7,1.8
			c-0.1,0.2-0.1,0.4-0.4,0.5s-0.4-0.2-0.4-0.4c-0.3-0.7-0.5-1.3-0.8-2c0-0.1-0.2-0.3,0.1-0.4s0.3,0,0.4,0.2L134.3,48.3z"/>
		<path class="st8" d="M150.6,47.7c0-0.3,0.1-0.8,0-0.9c-0.4-0.4-0.6-0.6,0-1c0.2-0.1-0.2-0.7,0.2-0.7s0.2,0.5,0.2,0.7
			c0,0.5,0.7,0,0.6,0.5s-0.6,0-0.6,0.5s0,1.1,0,1.7c0,0.2,0.1,0.5-0.2,0.4s-0.2-0.3-0.2-0.5S150.7,47.9,150.6,47.7L150.6,47.7z"/>
		<path class="st13" d="M141.6,46.1c0.3,0.6,0.7-0.1,1,0c0.1,0,0.2,0,0.2,0.2s0,0.2-0.1,0.2c-1.1,0.2-0.9,1.1-1,1.9
			c0,0.2,0.1,0.5-0.2,0.5s-0.3-0.3-0.3-0.5c0-0.6,0-1.2,0-1.8C141.3,46.3,141.2,46.1,141.6,46.1z"/>
		<path class="st14" d="M131,47.5v-1.1c0-0.2,0-0.3,0.2-0.3s0.2,0.2,0.2,0.3c0,0.7,0,1.5,0,2.2c0,0.2,0,0.3-0.2,0.3
			s-0.2-0.2-0.2-0.3L131,47.5z"/>
		<path class="st15" d="M148.6,47.5c0,0.3,0,0.7,0,1.1c0,0.1,0,0.3-0.2,0.3s-0.2-0.2-0.2-0.4v-2.1c0-0.2,0-0.3,0.2-0.3
			s0.2,0.2,0.2,0.3L148.6,47.5z"/>
		<path class="st16" d="M101.3,47.5c0,1.4-1.1,2.6-2.5,2.7c-1.4,0-2.6-1.1-2.7-2.5c0-0.1,0-0.3,0-0.4c-0.1-1.4,1-2.6,2.5-2.7
			c0.1,0,0.1,0,0.2,0c1.5,0.1,2.6,1.3,2.5,2.8C101.3,47.4,101.3,47.5,101.3,47.5z"/>
		<path class="st17" d="M138.3,47.2c-0.1,0-0.1,0-0.2,0c-0.2-0.1-0.6,0.2-0.6-0.2s0.3-0.5,0.6-0.5c0.2,0,0.3,0,0.5,0
			c0.3,0.1,0.6,0.2,0.5,0.5s-0.4,0.1-0.6,0.2C138.5,47.2,138.4,47.2,138.3,47.2z"/>
		<path class="st18" d="M27.7,59.4h177.9c4.7,0,8.6,3.8,8.6,8.6v21.7c0,4.7-3.8,8.6-8.6,8.6H27.7c-4.7,0-8.6-3.8-8.6-8.6V68
			C19.1,63.3,23,59.4,27.7,59.4z"/>
		<path class="st19" d="M205.4,59.4h-60.7l-38.8,38.8h99.5c4.7,0,8.6-3.8,8.6-8.6V68C214,63.3,210.2,59.4,205.4,59.4z"/>
		<path class="st20" d="M76,118.4c-0.8,0.3-1.6,0.5-2.5,0.4c-2.4,0.1-4.5-1.7-4.7-4.1c0-0.2,0-0.4,0-0.7c-0.2-2.6,1.8-4.8,4.3-5
			c0.2,0,0.4,0,0.6,0c0.8,0,1.5,0.1,2.2,0.4l-0.3,1c-0.6-0.3-1.2-0.4-1.9-0.4c-2.2,0-3.7,1.4-3.7,3.9c0,2.3,1.3,3.8,3.6,3.8
			c0.7,0,1.4-0.1,2-0.4L76,118.4z"/>
		<path class="st20" d="M77.6,114.1c0-0.8,0-1.5-0.1-2.1h1.1v1.3l0,0c0.2-0.8,1-1.4,1.9-1.5c0.1,0,0.2,0,0.3,0v1.2
			c-0.1,0-0.3,0-0.4,0c-0.9,0-1.6,0.7-1.7,1.6c0,0.2,0,0.4,0,0.6v3.6h-1.2V114.1z"/>
		<path class="st20" d="M82.8,115.6c-0.1,1.2,0.8,2.2,2,2.3c0.1,0,0.2,0,0.4,0c0.6,0,1.3-0.1,1.9-0.3l0.2,0.9
			c-0.7,0.3-1.5,0.4-2.3,0.4c-1.7,0.1-3.2-1.2-3.3-3c0-0.1,0-0.3,0-0.4c0-2,1.2-3.7,3.2-3.7c2.2,0,2.8,1.9,2.8,3.2
			c0,0.2,0,0.4,0,0.6H82.8z M86.4,114.7c0.1-1-0.5-1.8-1.5-2c-0.1,0-0.1,0-0.2,0c-1.1,0.1-1.9,0.9-1.9,2H86.4z"/>
		<path class="st20" d="M95.4,115.3c0.2,1.8-1.2,3.4-3,3.6c-0.1,0-0.2,0-0.3,0c-1.8,0-3.2-1.4-3.3-3.2c0-0.1,0-0.2,0-0.3
			c-0.2-1.8,1.2-3.4,3-3.6c0.1,0,0.2,0,0.4,0c1.8,0,3.2,1.4,3.3,3.1C95.4,115,95.4,115.2,95.4,115.3z M90.1,115.3
			c0,1.5,0.8,2.6,2.1,2.6s2.1-1.1,2.1-2.7c0-1.1-0.6-2.6-2-2.6S90.1,114.1,90.1,115.3z"/>
		<path class="st20" d="M100.3,109.4c0.8-0.1,1.6-0.2,2.3-0.2c0.9-0.1,1.9,0.2,2.6,0.8c0.6,0.5,0.9,1.2,0.8,2c0,0.7-0.2,1.5-0.7,2
			c-0.8,0.7-1.8,1.1-2.9,1c-0.3,0-0.7,0-1-0.1v3.8h-1.2L100.3,109.4z M101.5,113.9c0.3,0.1,0.7,0.1,1,0.1c1.5,0,2.4-0.7,2.4-2
			s-0.9-1.9-2.2-1.9c-0.4,0-0.8,0-1.2,0.1L101.5,113.9z"/>
		<path class="st20" d="M111.2,118.7l-0.1-0.8l0,0c-0.5,0.6-1.3,1-2.1,1c-1.1,0.1-2-0.7-2.1-1.8c0-0.1,0-0.1,0-0.2
			c0-1.7,1.4-2.6,4.1-2.5v-0.1c0.1-0.8-0.4-1.5-1.2-1.6c-0.1,0-0.2,0-0.3,0c-0.6,0-1.2,0.2-1.8,0.5l-0.3-0.8
			c0.7-0.4,1.5-0.6,2.2-0.6c2.1,0,2.6,1.4,2.6,2.8v2.5c0,0.5,0,1.1,0.1,1.6L111.2,118.7z M111,115.3c-1.3,0-2.9,0.2-2.9,1.5
			c-0.1,0.6,0.4,1.1,1,1.2c0.1,0,0.1,0,0.2,0c0.7,0,1.4-0.4,1.7-1.1c0-0.1,0.1-0.3,0.1-0.4V115.3z"/>
		<path class="st20" d="M114.3,114.1c0-0.8,0-1.5-0.1-2.1h1.1v1.3l0,0c0.2-0.8,1-1.4,1.9-1.5c0.1,0,0.2,0,0.3,0v1.2
			c-0.1,0-0.3,0-0.4,0c-0.9,0-1.6,0.7-1.7,1.6c0,0.2,0,0.4-0.1,0.6v3.6h-1.2L114.3,114.1z"/>
		<path class="st20" d="M122.8,118.7l-0.1-0.8l0,0c-0.5,0.6-1.3,1-2.1,1c-1.1,0.1-2-0.7-2.1-1.8c0-0.1,0-0.1,0-0.2
			c0-1.7,1.5-2.6,4.1-2.5v-0.1c0.1-0.8-0.5-1.5-1.2-1.6c-0.1,0-0.2,0-0.3,0c-0.6,0-1.2,0.2-1.8,0.5l-0.3-0.8
			c0.7-0.4,1.4-0.6,2.2-0.6c2.1,0,2.6,1.4,2.6,2.8v2.5c0,0.5,0,1.1,0.1,1.6H122.8z M122.6,115.3c-1.3,0-2.9,0.2-2.9,1.5
			c-0.1,0.6,0.4,1.1,1,1.2c0.1,0,0.1,0,0.2,0c0.7,0,1.4-0.4,1.7-1.1c0-0.1,0.1-0.3,0.1-0.4V115.3z"/>
		<path class="st20" d="M125.9,113.8c0-0.7,0-1.3,0-1.8h1.1l0.1,1.1l0,0c0.4-0.8,1.2-1.3,2.1-1.2c0.9,0,1.6,0.5,1.9,1.3l0,0
			c0.2-0.3,0.5-0.6,0.8-0.9c0.4-0.3,1-0.5,1.5-0.5c0.9,0,2.2,0.6,2.2,2.9v4h-1.2v-3.8c0-1.3-0.5-2.1-1.5-2.1c-0.7,0-1.3,0.5-1.5,1.1
			c-0.1,0.2-0.1,0.4-0.1,0.6v4.2h-1.2v-4.1c0-1.1-0.5-1.9-1.4-1.9c-0.7,0-1.3,0.5-1.5,1.2c-0.1,0.2-0.1,0.4-0.1,0.6v4.1h-1.2
			L125.9,113.8z"/>
		<path class="st20" d="M138.4,115.6c-0.1,1.2,0.8,2.2,2,2.3c0.1,0,0.2,0,0.4,0c0.6,0,1.3-0.1,1.9-0.3l0.2,0.9
			c-0.7,0.3-1.5,0.5-2.3,0.4c-1.7,0.1-3.2-1.2-3.3-3c0-0.1,0-0.3,0-0.4c0-2,1.2-3.7,3.2-3.7c2.2,0,2.8,1.9,2.8,3.2
			c0,0.2,0,0.4,0,0.6H138.4z M142,114.7c0.1-1-0.5-1.8-1.5-2c-0.1,0-0.2,0-0.2,0c-1.1,0.1-1.9,0.9-1.9,2H142z"/>
		<path class="st20" d="M146.3,110v2h1.8v0.9h-1.8v3.7c0,0.8,0.2,1.3,0.9,1.3c0.2,0,0.5,0,0.7-0.1l0.1,0.9c-0.4,0.1-0.7,0.2-1.1,0.2
			c-0.5,0-1-0.2-1.3-0.5c-0.4-0.5-0.5-1.1-0.5-1.8v-3.7h-1V112h1v-1.6L146.3,110z"/>
		<path class="st20" d="M149.6,114.1c0-0.8,0-1.5-0.1-2.1h1.1v1.3l0,0c0.2-0.8,1-1.4,1.9-1.5c0.1,0,0.2,0,0.3,0v1.2
			c-0.1,0-0.3,0-0.4,0c-0.9,0-1.6,0.7-1.6,1.6c0,0.2,0,0.4-0.1,0.6v3.6h-1.2L149.6,114.1z"/>
		<path class="st20" d="M155.8,110c0,0.4-0.3,0.8-0.7,0.8c0,0,0,0-0.1,0c-0.4,0-0.7-0.3-0.7-0.7c0,0,0,0,0,0c0-0.4,0.3-0.8,0.7-0.8
			c0,0,0,0,0,0C155.4,109.2,155.8,109.5,155.8,110C155.8,110,155.8,110,155.8,110z M154.4,118.7V112h1.2v6.8L154.4,118.7z"/>
		<path class="st20" d="M162.6,118.5c-0.6,0.3-1.3,0.4-2,0.4c-1.8,0.1-3.3-1.3-3.4-3.1c0-0.1,0-0.3,0-0.4c-0.1-1.9,1.4-3.5,3.3-3.6
			c0.2,0,0.3,0,0.5,0c0.6,0,1.2,0.1,1.7,0.4l-0.3,1c-0.4-0.2-0.9-0.3-1.4-0.3c-1.3,0-2.4,1-2.4,2.3c0,0.1,0,0.2,0,0.2
			c-0.1,1.3,0.8,2.4,2.1,2.5c0.1,0,0.2,0,0.3,0c0.5,0,1-0.1,1.5-0.3L162.6,118.5z"/>
		<path class="st21" d="M71,126.8c0.5-0.1,1.1-0.2,1.6-0.2c0.8-0.1,1.5,0.2,2.1,0.7c0.3,0.4,0.5,0.8,0.5,1.3c0,0.8-0.6,1.5-1.4,1.8
			l0,0c1,0.2,1.7,1.1,1.7,2.1c0,0.6-0.2,1.1-0.6,1.5c-0.7,0.6-1.6,0.9-2.6,0.8c-0.6,0-1.1-0.1-1.4-0.1V126.8z M71.6,130.3h1.2
			c0.9,0.1,1.8-0.5,1.9-1.5c0,0,0-0.1,0-0.1c0-1.1-0.9-1.6-2.1-1.6c-0.3,0-0.7,0-1,0.1L71.6,130.3z M71.6,134.3
			c0.3,0.1,0.7,0.1,1,0.1c1.2,0,2.4-0.4,2.4-1.8s-1.1-1.8-2.4-1.8h-1L71.6,134.3z"/>
		<path class="st21" d="M80.3,134.8l-0.1-0.8l0,0c-0.4,0.6-1.1,1-1.8,1c-0.9,0.1-1.6-0.6-1.7-1.4c0,0,0-0.1,0-0.1
			c0-1.3,1.2-2.1,3.5-2.1v-0.1c0-0.6-0.1-1.7-1.5-1.7c-0.5,0-1,0.1-1.4,0.4l-0.2-0.4c0.5-0.3,1.1-0.5,1.7-0.5c1.7,0,2,1.2,2,2.3v2.2
			c0,0.5,0,0.9,0.1,1.4L80.3,134.8z M80.2,131.7c-1.3,0-2.9,0.1-2.9,1.5c-0.1,0.6,0.4,1.1,1,1.2c0.1,0,0.1,0,0.2,0
			c0.8,0,1.5-0.4,1.7-1.1c0-0.1,0.1-0.2,0.1-0.4L80.2,131.7z"/>
		<path class="st21" d="M82.5,134c0.4,0.2,0.8,0.4,1.3,0.4c0.9,0,1.3-0.5,1.3-1.1s-0.4-1-1.2-1.3s-1.5-0.9-1.5-1.6
			c0-0.9,0.7-1.6,1.6-1.6c0,0,0.1,0,0.1,0c0.5,0,0.9,0.1,1.3,0.4l-0.2,0.5c-0.3-0.2-0.7-0.4-1.1-0.4c-0.5-0.1-1,0.3-1.1,0.9
			c0,0,0,0.1,0,0.1c0,0.6,0.4,0.9,1.2,1.2c0.9,0.4,1.5,0.8,1.5,1.7s-0.8,1.6-1.9,1.6c-0.5,0-1-0.1-1.5-0.4L82.5,134z"/>
		<path class="st21" d="M88.1,127.4c0,0.3-0.1,0.5-0.4,0.5c-0.3,0-0.5-0.1-0.5-0.4c0,0,0-0.1,0-0.1c0-0.3,0.2-0.5,0.5-0.5
			C87.9,126.9,88.1,127.1,88.1,127.4C88.1,127.4,88.1,127.4,88.1,127.4z M87.4,134.8V129h0.6v5.8L87.4,134.8z"/>
		<path class="st21" d="M94,134.6c-0.5,0.2-1.1,0.4-1.7,0.4c-1.5,0-2.8-1.1-2.8-2.6c0-0.1,0-0.2,0-0.3c-0.1-1.6,1.1-3,2.7-3.1
			c0.1,0,0.2,0,0.3,0c0.5,0,1,0.1,1.5,0.4l-0.2,0.5c-0.4-0.2-0.9-0.4-1.4-0.3c-1.3,0-2.3,1-2.3,2.3c0,0.1,0,0.2,0,0.3
			c-0.1,1.2,0.8,2.4,2,2.5c0.1,0,0.2,0,0.2,0c0.5,0,1-0.1,1.4-0.3L94,134.6z"/>
		<path class="st21" d="M95.2,134c0.4,0.2,0.8,0.4,1.3,0.4c0.9,0,1.3-0.5,1.3-1.1s-0.4-1-1.2-1.3s-1.5-0.9-1.5-1.6
			c0-0.9,0.8-1.6,1.7-1.5c0,0,0.1,0,0.1,0c0.4,0,0.9,0.1,1.3,0.4l-0.2,0.5c-0.3-0.2-0.7-0.4-1.1-0.4c-0.5-0.1-1,0.3-1.1,0.9
			c0,0,0,0.1,0,0.1c0,0.6,0.4,0.9,1.2,1.2s1.5,0.8,1.5,1.7s-0.8,1.6-1.9,1.6c-0.5,0-1-0.1-1.5-0.4L95.2,134z"/>
		<path class="st21" d="M107.7,131.9c0.2,1.5-1,2.9-2.5,3.1c-0.1,0-0.2,0-0.3,0c-1.5,0-2.7-1.3-2.7-2.7c0-0.1,0-0.2,0-0.3
			c-0.2-1.5,1-2.9,2.5-3c0.1,0,0.2,0,0.2,0c1.5,0,2.7,1.2,2.7,2.7C107.7,131.7,107.7,131.8,107.7,131.9z M102.9,131.9
			c-0.1,1.3,0.8,2.4,2.1,2.5c0,0,0,0,0,0c1.3-0.1,2.3-1.2,2.2-2.5c0,0,0,0,0,0c0.2-1.2-0.6-2.3-1.7-2.5s-2.3,0.6-2.5,1.7
			C102.9,131.4,102.9,131.6,102.9,131.9L102.9,131.9z"/>
		<path class="st21" d="M109.3,134.8v-5.3h-0.8V129h0.8v-0.3c-0.1-0.7,0.2-1.5,0.6-2.1c0.3-0.3,0.8-0.5,1.3-0.5
			c0.3,0,0.6,0.1,0.9,0.2l-0.2,0.4c-0.2-0.1-0.5-0.2-0.7-0.2c-1.1,0-1.3,1-1.3,2.1v0.3h1.5v0.5h-1.5v5.3L109.3,134.8z"/>
		<path class="st21" d="M122.2,131c-0.1-1.2-0.2-2.7-0.2-3.6l0,0c-0.3,0.9-0.6,1.8-1.1,3l-1.7,4.4h-0.4l-1.6-4.3
			c-0.5-1.3-0.8-2.2-1.1-3.1l0,0c0,1-0.1,2.4-0.2,3.7l-0.3,3.7h-0.6l0.6-8.1h0.7l1.7,4.7c0.4,1,0.7,1.8,0.9,2.6l0,0
			c0.3-0.9,0.6-1.8,0.9-2.6l1.8-4.7h0.7l0.5,8.1h-0.6L122.2,131z"/>
		<path class="st21" d="M129.8,131.9c0.2,1.5-1,2.9-2.5,3.1c-0.1,0-0.2,0-0.3,0c-1.5,0-2.7-1.2-2.6-2.7c0-0.1,0-0.2,0-0.3
			c-0.2-1.5,1-2.9,2.5-3c0.1,0,0.2,0,0.2,0c1.5,0,2.7,1.2,2.7,2.7C129.8,131.7,129.8,131.8,129.8,131.9z M125,131.9
			c-0.1,1.3,0.8,2.4,2.1,2.5c0,0,0,0,0,0c1.3-0.1,2.2-1.2,2.1-2.5c0,0,0,0,0-0.1c0.2-1.2-0.6-2.3-1.8-2.5c-1.2-0.2-2.3,0.6-2.5,1.8
			C124.9,131.4,124.9,131.7,125,131.9L125,131.9z"/>
		<path class="st21" d="M136,126.3v7.2c0,0.4,0,0.9,0.1,1.3h-0.5v-1.1l0,0c-0.4,0.8-1.2,1.3-2.1,1.2c-1.4-0.1-2.6-1.3-2.5-2.7
			c0-0.1,0-0.1,0-0.2c0-1.9,1.2-3.1,2.6-3.1c0.8-0.1,1.5,0.3,1.9,1l0,0v-3.6L136,126.3z M135.4,131.3c0-0.2,0-0.4-0.1-0.5
			c-0.2-0.8-1-1.4-1.8-1.4c-1.2,0-2.1,1.1-2.1,2.6c0,1.3,0.6,2.5,2,2.5c0.9,0,1.7-0.6,1.8-1.5c0-0.2,0.1-0.3,0.1-0.5L135.4,131.3z"
			/>
		<path class="st21" d="M138.1,131.9c0,1.8,1,2.6,2.2,2.6c0.6,0,1.1-0.1,1.6-0.3l0.1,0.4c-0.6,0.3-1.2,0.4-1.8,0.4
			c-1.5,0-2.7-1.1-2.7-2.6c0-0.1,0-0.2,0-0.3c0-1.9,1.1-3.1,2.6-3.1c1.3,0,2.3,1.1,2.3,2.4c0,0.1,0,0.1,0,0.2c0,0.1,0,0.2,0,0.4
			L138.1,131.9z M141.8,131.4c0.1-1-0.5-1.9-1.5-2c-0.1,0-0.1,0-0.2,0c-1.1,0.1-1.9,0.9-1.9,2H141.8z"/>
		<path class="st21" d="M144,126.3h0.6v8.5H144V126.3z"/>
		<path class="st21" d="M147.4,127.4c0,0.3-0.2,0.5-0.5,0.5c-0.3,0-0.5-0.2-0.5-0.5c0,0,0,0,0,0c0-0.3,0.2-0.5,0.5-0.5
			C147.2,126.9,147.4,127.1,147.4,127.4C147.4,127.4,147.4,127.4,147.4,127.4z M146.6,134.8V129h0.6v5.8L146.6,134.8z"/>
		<path class="st21" d="M149.3,130.4c0-0.5,0-0.9-0.1-1.4h0.5v1l0,0c0.4-0.7,1.2-1.2,2-1.2c0.5,0,2,0.3,2,2.4v3.4h-0.6v-3.4
			c0-1.1-0.4-2-1.6-2c-0.8,0-1.5,0.5-1.7,1.3c0,0.2-0.1,0.3-0.1,0.5v3.6h-0.6L149.3,130.4z"/>
		<path class="st21" d="M160.4,129c0,0.4,0,0.9,0,1.5v3.5c0.1,1-0.2,1.9-0.8,2.7c-0.6,0.5-1.3,0.7-2,0.7c-0.6,0-1.3-0.2-1.8-0.5
			l0.2-0.5c0.5,0.3,1.1,0.5,1.7,0.5c1.2,0,2.1-0.6,2.1-2.3v-0.8l0,0c-0.4,0.7-1.2,1.2-2,1.1c-1.4-0.1-2.5-1.3-2.5-2.7
			c0,0,0-0.1,0-0.1c-0.2-1.5,0.9-2.9,2.4-3c0.1,0,0.1,0,0.2,0c0.8-0.1,1.6,0.4,1.9,1.1l0,0v-1L160.4,129z M159.8,131.2
			c0-0.2,0-0.4-0.1-0.6c-0.2-0.8-1-1.3-1.8-1.3c-1.2,0-2.1,1-2.1,2.5c0,1.3,0.7,2.4,2,2.4c0.8,0,1.5-0.5,1.8-1.3
			c0.1-0.2,0.1-0.4,0.1-0.6L159.8,131.2z"/>
		<path class="st21" d="M104.4,162.8v-0.4l0.7-0.7c2.2-2.1,3.1-3.2,3.1-4.6c0.1-0.9-0.5-1.6-1.3-1.8c-0.1,0-0.2,0-0.4,0
			c-0.6,0-1.2,0.3-1.7,0.7l-0.2-0.4c0.5-0.5,1.3-0.8,2-0.8c1.1-0.1,2.1,0.7,2.2,1.8c0,0.1,0,0.2,0,0.3c0,1.5-1.1,2.8-3.1,4.7
			l-0.6,0.6l0,0h3.8v0.5L104.4,162.8z"/>
		<path class="st21" d="M115.2,158.8c0,2.8-1,4.1-2.6,4.1c-1.2,0-2.3-1.2-2.4-4s1.2-4.1,2.6-4.1S115.2,156.1,115.2,158.8z
			 M110.8,158.9c0,2.2,0.7,3.5,1.9,3.5c1.3,0,1.9-1.5,1.9-3.6s-0.6-3.5-1.9-3.5C111.6,155.3,110.8,156.6,110.8,158.9L110.8,158.9z"
			/>
		<path class="st21" d="M116.3,162.8v-0.4l0.7-0.7c2.2-2.1,3.1-3.2,3.1-4.6c0.1-0.9-0.5-1.6-1.3-1.8c-0.1,0-0.2,0-0.4,0
			c-0.6,0-1.2,0.3-1.7,0.7l-0.2-0.4c0.5-0.5,1.3-0.8,2-0.8c1.1-0.1,2.1,0.7,2.2,1.8c0,0.1,0,0.2,0,0.3c0,1.5-1.1,2.8-3.1,4.7
			l-0.6,0.6l0,0h3.9v0.5L116.3,162.8z"/>
		<path class="st21" d="M124.6,155.6L124.6,155.6l-1.3,0.8l-0.1-0.5l1.5-0.9h0.5v7.8h-0.6L124.6,155.6z"/>
	</g>
	<text transform="matrix(1 0 0 1 107.6069 76.1041)" class="st22 st23 st24">			</text>
	<text transform="matrix(1 0 0 1 71.9913 84.6712)" class="st16 st22 st25">CERTIFIED</text>
</g>
</svg>
