<svg id="Layer_2" data-name="Layer 2" xmlns="http://www.w3.org/2000/svg" viewBox="0 0 360.94 365.2"><defs><style>.cls-1{fill:#120c80;}</style></defs><path class="cls-1" d="M102.26,233.66l8.23-.65c4-.31,6.7,4.19,4.76,7.88L61.69,342.83c-2.25,4.29,1.72,9.25,6.09,7.58,24.83-9.48,81.07-36.14,109.32-91.31C209.2,196.39,99,208,69.81,212.11a5.17,5.17,0,0,1-5.56-6.29h0a5.17,5.17,0,0,1,3.3-4c13.78-4.92,76.82-24.84,130.92,1,61.13,29.21-30.79,109.61-30.79,109.61s-45.73,41.36-97,57.68-51.12,13.66-51.18,8.56S96.9,232.05,102.26,233.66Z" transform="translate(-19.53 -17.4)"/><path class="cls-1" d="M192.39,334.93c-3.74-3.73-1.14-10.44,4-10.5,26.78-.34,90.52-1.61,102.57-6.16,15.35-5.8,33.29-6.73,0-49.69s-71-83.64-52.14-106.72,88.35-27.11,125-10.63-54.5,6.84-72.89,10.63c-22.38,4.61-29.81,15.92-8.31,41,38.86,45.3,60.14,64.6,66.22,93.55,2.71,12.94,0,32.16-39.68,42.32-57.78,14.78-121.43-.51-124.74-3.72Z" transform="translate(-19.53 -17.4)"/><path class="cls-1" d="M149.47,151.9c-3.4,2.7-.53,8.35,3.45,6.77,33.82-13.45,93.47-44.53,98.43-97.76,1.44-15.38-6.62-32.68-21.36-38.46-16.22-6.35-44.22-8.47-92.51,4.23-4.19,1.11-3.43,7.65.88,7.66,29,.06,70,3.14,79.54,19.46C225.39,66.68,208.59,104.91,149.47,151.9Z" transform="translate(-19.53 -17.4)"/><text x="-19.53" y="-17.4"/><text x="-19.53" y="-17.4"/></svg>