<svg id="Layer_2" data-name="Layer 2" xmlns="http://www.w3.org/2000/svg" xmlns:xlink="http://www.w3.org/1999/xlink" viewBox="0 0 314 314"><defs><style>.cls-1{fill:url(#linear-gradient);}.cls-2{fill:#2f7f1e;}.cls-3{fill:#fffbfb;}.cls-4{fill:url(#linear-gradient-2);}.cls-5{fill:#fff9fd;}.cls-6{fill:#cbd4d1;}</style><linearGradient id="linear-gradient" x1="39.8" y1="15.51" x2="301.63" y2="270.3" gradientUnits="userSpaceOnUse"><stop offset="0" stop-color="#86e41c"/><stop offset="0.33" stop-color="#6bd11f"/><stop offset="1" stop-color="#2aa227"/></linearGradient><linearGradient id="linear-gradient-2" x1="146.15" y1="121.12" x2="275.69" y2="247.19" gradientUnits="userSpaceOnUse"><stop offset="0" stop-color="#dcdcdc"/><stop offset="0.54" stop-color="#dedede"/><stop offset="0.76" stop-color="#e5e5e4"/><stop offset="0.92" stop-color="#f1f1f0"/><stop offset="1" stop-color="#fbfbf9"/></linearGradient></defs><text x="-43" y="-43"/><text x="-43" y="-43"/><path class="cls-1" d="M95,0H314a0,0,0,0,1,0,0V219a95,95,0,0,1-95,95H95A95,95,0,0,1,0,219V95A95,95,0,0,1,95,0Z"/><path class="cls-2" d="M106.74,143.48a11,11,0,0,0,0,15.59L243.31,295.64l30.07,5.81,9.07-9.07L120.15,130.07Z" transform="translate(-43 -43)"/><path class="cls-2" d="M294.35,303l-2-12.91-6.1,6.1,7.89,7.89A1.79,1.79,0,0,0,294.35,303Z" transform="translate(-43 -43)"/><path class="cls-2" d="M286.28,296.2l-6.48,6.49,12.4,2.39a1.82,1.82,0,0,0,2-1Z" transform="translate(-43 -43)"/><path class="cls-3" d="M288.43,239.7,151.86,103.13a11,11,0,0,0-15.6,0l-27.71,27.72a11,11,0,0,0,0,15.59L245.11,283l30.07,5.8,18-18Z" transform="translate(-43 -43)"/><path class="cls-3" d="M294.19,277.47,281.6,290.05l12.4,2.4a1.84,1.84,0,0,0,2.16-2.08Z" transform="translate(-43 -43)"/><path class="cls-4" d="M283.36,234.64,151.86,103.13a11,11,0,0,0-15.6,0L122,117.44,259.3,254.79a8.24,8.24,0,0,1,6.95-3.36,9.74,9.74,0,0,1,2.79.4,7.93,7.93,0,0,1,2.41-2.52,8.06,8.06,0,0,1,6.68-5.14C277.71,240.3,279.44,236.16,283.36,234.64Z" transform="translate(-43 -43)"/><rect class="cls-5" x="171.13" y="138.7" width="7.22" height="61.25" transform="translate(127.91 -116.96) rotate(45)"/><rect class="cls-6" x="174.74" y="142.31" width="7.22" height="61.25" transform="translate(131.52 -118.46) rotate(45)"/></svg>