<?xml version="1.0" encoding="UTF-8"?>
<!DOCTYPE svg PUBLIC "-//W3C//DTD SVG 1.1//EN" "http://www.w3.org/Graphics/SVG/1.1/DTD/svg11.dtd">
<!-- Creator: CorelDRAW 2021 (64-Bit) -->
<svg xmlns="http://www.w3.org/2000/svg" xml:space="preserve" width="84.6666mm" height="84.6666mm" version="1.1" style="shape-rendering:geometricPrecision; text-rendering:geometricPrecision; image-rendering:optimizeQuality; fill-rule:evenodd; clip-rule:evenodd"
viewBox="0 0 8466.66 8466.66"
 xmlns:xlink="http://www.w3.org/1999/xlink"
 xmlns:xodm="http://www.corel.com/coreldraw/odm/2003">
 <defs>
  <style type="text/css">
   <![CDATA[
    .fil1 {fill:none}
    .fil0 {fill:#33CC99}
   ]]>
  </style>
    <clipPath id="id0">
     <path d="M3970.84 1874.82l3962.4 0 0 6333.06 -3962.4 0 0 -6333.06z"/>
    </clipPath>
   <clipPath id="id1">
    <path d="M4597.36 2332.02l2709.36 0c93.14,0 169.32,76.19 169.32,169.32l0 5080.02c0,93.13 -76.18,169.32 -169.32,169.32l-2709.36 0c-93.14,0 -169.32,-76.19 -169.32,-169.32l0 -5080.02c0,-93.13 76.18,-169.32 169.32,-169.32z"/>
   </clipPath>
     <clipPath id="id2">
      <path d="M4597.36 2332.02l2709.36 0c93.14,0 169.32,76.19 169.32,169.32l0 5080.02c0,93.13 -76.18,169.32 -169.32,169.32l-2709.36 0c-93.14,0 -169.32,-76.19 -169.32,-169.32l0 -5080.02c0,-93.13 76.18,-169.32 169.32,-169.32z"/>
     </clipPath>
     <clipPath id="id3">
      <path d="M4597.36 2332.02l2709.36 0c93.14,0 169.32,76.19 169.32,169.32l0 5080.02c0,93.13 -76.18,169.32 -169.32,169.32l-2709.36 0c-93.14,0 -169.32,-76.19 -169.32,-169.32l0 -5080.02c0,-93.13 76.18,-169.32 169.32,-169.32z"/>
     </clipPath>
    <clipPath id="id4">
     <path d="M7372.2 2345.27c60.86,25.73 103.84,86.12 103.84,156.07l0 5080.02c0,93.13 -76.18,169.32 -169.32,169.32l-2709.36 0c-92.65,0 -168.52,-75.4 -169.3,-167.87l0 -5082.92c0.59,-69.34 43.38,-129.07 103.82,-154.62l2840.32 0z"/>
    </clipPath>
    <clipPath id="id5">
     <path d="M4597.36 2332.02l2709.36 0c93.14,0 169.32,76.19 169.32,169.32l0 5080.02c0,93.13 -76.18,169.32 -169.32,169.32l-2709.36 0c-93.14,0 -169.32,-76.19 -169.32,-169.32l0 -5080.02c0,-93.13 76.18,-169.32 169.32,-169.32z"/>
    </clipPath>
    <clipPath id="id6">
     <path d="M374.29 296.34l3962.4 0 0 6333.06 -3962.4 0 0 -6333.06z"/>
    </clipPath>
   <clipPath id="id7">
    <path d="M1000.81 753.54l2709.36 0c93.14,0 169.32,76.19 169.32,169.32l0 5080.02c0,93.13 -76.18,169.32 -169.32,169.32l-2709.36 0c-93.14,0 -169.32,-76.19 -169.32,-169.32l0 -5080.02c0,-93.13 76.18,-169.32 169.32,-169.32z"/>
   </clipPath>
     <clipPath id="id8">
      <path d="M1000.81 753.54l2709.36 0c93.14,0 169.32,76.19 169.32,169.32l0 5080.02c0,93.13 -76.18,169.32 -169.32,169.32l-2709.36 0c-93.14,0 -169.32,-76.19 -169.32,-169.32l0 -5080.02c0,-93.13 76.18,-169.32 169.32,-169.32z"/>
     </clipPath>
     <clipPath id="id9">
      <path d="M1000.81 753.54l2709.36 0c93.14,0 169.32,76.19 169.32,169.32l0 5080.02c0,93.13 -76.18,169.32 -169.32,169.32l-2709.36 0c-93.14,0 -169.32,-76.19 -169.32,-169.32l0 -5080.02c0,-93.13 76.18,-169.32 169.32,-169.32z"/>
     </clipPath>
    <clipPath id="id10">
     <path d="M1000.81 753.54l2709.36 0c72.84,0 135.3,46.61 159.07,111.46l0 5195.74c-23.77,64.85 -86.23,111.46 -159.07,111.46l-2709.36 0c-93.14,0 -169.32,-76.19 -169.32,-169.32l0 -5080.02c0,-93.13 76.18,-169.32 169.32,-169.32z"/>
    </clipPath>
    <clipPath id="id11">
     <path d="M1000.81 753.54l2709.36 0c93.14,0 169.32,76.19 169.32,169.32l0 5080.02c0,93.13 -76.18,169.32 -169.32,169.32l-2709.36 0c-93.14,0 -169.32,-76.19 -169.32,-169.32l0 -5080.02c0,-93.13 76.18,-169.32 169.32,-169.32z"/>
    </clipPath>
 </defs>
 <g id="Layer_x0020_1">
  <metadata id="CorelCorpID_0Corel-Layer"/>
  <rect class="fil0" x="-0.01" y="-0.02" width="8466.67" height="8466.67"/>
  <g id="_1758216354784">
   <g style="clip-path:url(#id0)">
    <image x="3970.84" y="1874.82" width="3962.4" height="6333.06" xlink:href="ui-desigen app_Images\ui-desigen app_ImgID1.png"/>
   </g>
  </g>
  <g>
  </g>
  <g style="clip-path:url(#id1)">
   <g>
    <g id="_1758216356608">
    </g>
    <g style="clip-path:url(#id2)">
     <image x="3970.87" y="1888.08" width="3962.36" height="6333.04" xlink:href="ui-desigen app_Images\ui-desigen app_ImgID2.png"/>
    </g>
    <g style="clip-path:url(#id3)">
    </g>
   </g>
   <g style="clip-path:url(#id4)">
    <image x="4428.06" y="2345.27" width="3047.98" height="5418.66" xlink:href="ui-desigen app_Images\ui-desigen app_ImgID3.png"/>
   </g>
   <g style="clip-path:url(#id5)">
   </g>
  </g>
  <path class="fil1" d="M4597.36 2332.02l2709.36 0c93.14,0 169.32,76.19 169.32,169.32l0 5080.02c0,93.13 -76.18,169.32 -169.32,169.32l-2709.36 0c-93.14,0 -169.32,-76.19 -169.32,-169.32l0 -5080.02c0,-93.13 76.18,-169.32 169.32,-169.32z"/>
  <g>
   <g style="clip-path:url(#id6)">
    <image x="374.29" y="296.34" width="3962.4" height="6333.06" xlink:href="ui-desigen app_Images\ui-desigen app_ImgID4.png"/>
   </g>
  </g>
  <g>
  </g>
  <g style="clip-path:url(#id7)">
   <g>
    <g>
    </g>
    <g style="clip-path:url(#id8)">
     <image x="364.07" y="296.35" width="3962.36" height="6333.04" xlink:href="ui-desigen app_Images\ui-desigen app_ImgID5.png"/>
    </g>
    <g style="clip-path:url(#id9)">
    </g>
   </g>
   <g style="clip-path:url(#id10)">
    <image x="821.26" y="753.54" width="3047.98" height="5418.66" xlink:href="ui-desigen app_Images\ui-desigen app_ImgID6.png"/>
   </g>
   <g style="clip-path:url(#id11)">
   </g>
  </g>
  <path class="fil1" d="M1000.81 753.54l2709.36 0c93.14,0 169.32,76.19 169.32,169.32l0 5080.02c0,93.13 -76.18,169.32 -169.32,169.32l-2709.36 0c-93.14,0 -169.32,-76.19 -169.32,-169.32l0 -5080.02c0,-93.13 76.18,-169.32 169.32,-169.32z"/>
 </g>
</svg>
