<?xml version="1.0" encoding="UTF-8"?>
<!DOCTYPE svg PUBLIC "-//W3C//DTD SVG 1.1//EN" "http://www.w3.org/Graphics/SVG/1.1/DTD/svg11.dtd">
<!-- Creator: CorelDRAW 2021 (64-Bit) -->
<svg xmlns="http://www.w3.org/2000/svg" xml:space="preserve" width="127mm" height="127mm" version="1.1" style="shape-rendering:geometricPrecision; text-rendering:geometricPrecision; image-rendering:optimizeQuality; fill-rule:evenodd; clip-rule:evenodd"
viewBox="0 0 12700 12700"
 xmlns:xlink="http://www.w3.org/1999/xlink"
 xmlns:xodm="http://www.corel.com/coreldraw/odm/2003">
 <defs>
  <style type="text/css">
   <![CDATA[
    .str0 {stroke:white;stroke-width:300;stroke-miterlimit:22.9256}
    .str1 {stroke:#7337D3;stroke-width:30;stroke-linecap:round;stroke-miterlimit:22.9256}
    .str2 {stroke:white;stroke-width:10;stroke-linecap:round;stroke-miterlimit:22.9256}
    .fil5 {fill:none}
    .fil11 {fill:#000066}
    .fil7 {fill:#672FB8}
    .fil3 {fill:#7337D3}
    .fil6 {fill:#7337D3}
    .fil2 {fill:#D4D0D0}
    .fil0 {fill:#E3E0E0}
    .fil4 {fill:white}
    .fil1 {fill:white}
    .fil8 {fill:#1F1F1F;fill-rule:nonzero}
    .fil10 {fill:#595759;fill-rule:nonzero}
    .fil9 {fill:#672FB8;fill-rule:nonzero}
   ]]>
  </style>
     <clipPath id="id0">
      <path d="M1614.14 929.55l9508.29 0 0 5642.31 -9508.29 0 0 -5642.31z"/>
     </clipPath>
     <clipPath id="id1">
      <path d="M2787.41 1581.29l7143.45 0c279.4,0 508,228.6 508,508l0 3323.54c0,279.4 -228.6,508 -508,508l-7143.45 0c-279.4,0 -508,-228.6 -508,-508l0 -3323.54c0,-279.4 228.6,-508 508,-508z"/>
     </clipPath>
      <mask id="id2">
  <linearGradient id="id3" gradientUnits="userSpaceOnUse" x1="8093.85" y1="2992.55" x2="7769.41" y2="2297.38">
   <stop offset="0" style="stop-opacity:0; stop-color:white"/>
   <stop offset="0.541176" style="stop-opacity:0; stop-color:white"/>
   <stop offset="1" style="stop-opacity:0; stop-color:white"/>
  </linearGradient>
       <rect style="fill:url(#id3)" x="2279.41" y="1581.29" width="8159.45" height="4339.54"/>
      </mask>
     <clipPath id="id4">
      <path d="M2787.41 1581.29l7143.45 0c279.4,0 508,228.6 508,508l0 3323.54c0,279.4 -228.6,508 -508,508l-7143.45 0c-279.4,0 -508,-228.6 -508,-508l0 -3323.54c0,-279.4 228.6,-508 508,-508z"/>
     </clipPath>
      <clipPath id="id5">
       <rect x="3794.94" y="3407.1" width="725.83" height="722.53"/>
      </clipPath>
     <clipPath id="id6">
      <path d="M1735.87 6115.57l9385.51 0 0 5654.89 -9385.51 0 0 -5654.89z"/>
     </clipPath>
     <clipPath id="id7">
      <path d="M9959.85 6768.05l-7062.45 0c-279.98,0 -509.05,229.07 -509.05,509.05l0 3330.42c0,279.98 229.07,509.05 509.05,509.05l7062.45 0c279.98,0 509.05,-229.07 509.05,-509.05l0 -3330.42c0,-279.98 -229.07,-509.05 -509.05,-509.05z"/>
     </clipPath>
      <mask id="id8">
  <linearGradient id="id9" gradientUnits="userSpaceOnUse" x1="4707.55" y1="8180.75" x2="5035.12" y2="7487.11">
   <stop offset="0" style="stop-opacity:0; stop-color:white"/>
   <stop offset="0.541176" style="stop-opacity:0; stop-color:white"/>
   <stop offset="1" style="stop-opacity:0; stop-color:white"/>
  </linearGradient>
       <rect style="fill:url(#id9)" x="2388.35" y="6768.05" width="8080.55" height="4348.52"/>
      </mask>
     <clipPath id="id10">
      <path d="M9959.85 6768.05l-7062.45 0c-279.98,0 -509.05,229.07 -509.05,509.05l0 3330.42c0,279.98 229.07,509.05 509.05,509.05l7062.45 0c279.98,0 509.05,-229.07 509.05,-509.05l0 -3330.42c0,-279.98 -229.07,-509.05 -509.05,-509.05z"/>
     </clipPath>
       <clipPath id="id11">
        <rect x="4240.9" y="8239.82" width="671.83" height="722.53"/>
       </clipPath>
      <clipPath id="id12">
       <rect x="3505.67" y="9165.03" width="2366.32" height="479.77"/>
      </clipPath>
 </defs>
 <g id="Layer_x0020_1">
  <metadata id="CorelCorpID_0Corel-Layer"/>
  <rect class="fil0" x="-148.17" y="-181.99" width="12911.36" height="12911.37"/>
  <g id="_1758494660960">
   <g>
    <g style="clip-path:url(#id0)">
     <image x="1614.14" y="929.55" width="9508.29" height="5642.31" xlink:href="VISTING CARD_Images\VISTING CARD_ImgID1.png"/>
    </g>
   </g>
   <g>
    <rect class="fil1" x="2311.95" y="1580.58" width="8159.45" height="4339.54" rx="587.51" ry="508"/>
    <path class="fil2" d="M5559.71 4041.71c0,0 1558.86,-241.44 1598.43,-2368.9 0.5,-27.35 0.77,-55.01 0.77,-82.98l-2598.77 0 999.57 2451.88z"/>
    <g style="clip-path:url(#id1)">
     <polygon class="fil1" style="mask:url(#id2)" points="2279.41,1581.29 10438.86,1581.29 10438.86,5920.83 2279.41,5920.83 "/>
    </g>
    <g style="clip-path:url(#id4)">
     <g>
      <g>
       <circle class="fil3" transform="matrix(1.39825 -0.85076 0.919147 1.29422 3619.54 3291.14)" r="1826.24"/>
       <circle class="fil4" transform="matrix(1.26734 -0.771107 0.83309 1.17304 1722.58 3035.56)" r="1826.24"/>
       <circle class="fil3" transform="matrix(1.0368 -0.630838 0.681547 0.95966 1765.17 3323.61)" r="1826.24"/>
      </g>
     </g>
    </g>
    <path class="fil5" d="M2787.41 1581.29l7143.45 0c279.4,0 508,228.6 508,508l0 3323.54c0,279.4 -228.6,508 -508,508l-7143.45 0c-279.4,0 -508,-228.6 -508,-508l0 -3323.54c0,-279.4 228.6,-508 508,-508z"/>
    <path class="fil6" d="M2310.47 5610.45c0,0 1006.28,-349.29 1252.22,-886.3 245.95,-537.01 -804.61,-963.03 -804.61,-963.03l-489 1212.7 0 405.42c0,0 -22.72,86.67 41.39,231.21z"/>
    <path class="fil7" d="M2268.92 3097.02c0,0 969.04,24.78 1276.86,698.23 0,0 -183.25,-712.54 -1276.86,-880.51l0 182.28z"/>
    <ellipse class="fil6 str0" cx="4170.16" cy="3759.6" rx="897.65" ry="830.86"/>
    <g>
     <g style="clip-path:url(#id5)">
      <image x="3794.94" y="3407.11" width="725.82" height="722.52" xlink:href="VISTING CARD_Images\VISTING CARD_ImgID2.png"/>
     </g>
     <path class="fil1" d="M3897.65 3793.72c0,105.19 -1.22,130.45 43.8,200.3 47.49,73.63 132.73,124.07 226.57,135.61l81.74 0c73.27,-9.09 146.7,-43.28 207.48,-109.51 36.57,-39.85 57.72,-92.82 63.53,-147.78l0 -62.75c-5.99,-56.58 -28.25,-110.82 -66.75,-150.57 -131.08,-135.31 -228.4,-106.15 -412.57,-106.15l0 240.85 -143.8 0z"/>
     <polygon class="fil1" points="3897.65,3793.72 3897.65,3552.87 3890.8,3552.87 4041.45,3552.87 4041.45,3407.1 3794.94,3407.1 3794.94,3793.72 "/>
     <polygon class="fil6" points="3897.65,3793.72 4041.45,3793.72 4041.45,3552.87 3890.8,3552.87 3897.65,3552.87 "/>
    </g>
    <path class="fil8" d="M8186.25 2703.22c0,1.48 -0.3,2.75 -0.92,3.81 -0.6,1.05 -1.97,1.9 -4.19,2.61 -2.28,0.63 -5.49,1.12 -9.83,1.41 -4.34,0.28 -10.21,0.42 -17.61,0.42 -6.24,0 -11.2,-0.14 -14.93,-0.42 -3.74,-0.29 -6.71,-0.78 -8.85,-1.56 -2.13,-0.77 -3.66,-1.69 -4.57,-2.89 -0.84,-1.2 -1.6,-2.61 -2.21,-4.23l-26.07 -59.9c-3.13,-6.78 -6.17,-12.84 -9.14,-18.06 -2.98,-5.3 -6.33,-9.67 -10,-13.2 -3.65,-3.53 -7.92,-6.14 -12.72,-7.97 -4.72,-1.77 -10.29,-2.68 -16.54,-2.68l-18.37 0 0 102.23c0,1.34 -0.47,2.61 -1.45,3.67 -0.99,1.13 -2.59,2.05 -4.81,2.75 -2.21,0.64 -5.18,1.2 -8.91,1.62 -3.66,0.43 -8.47,0.64 -14.18,0.64 -5.64,0 -10.37,-0.21 -14.18,-0.64 -3.81,-0.42 -6.78,-0.98 -9,-1.62 -2.2,-0.7 -3.8,-1.62 -4.64,-2.68 -0.92,-1.13 -1.38,-2.4 -1.38,-3.74l0 -242.99c0,-6.07 1.68,-10.44 5.04,-13.12 3.35,-2.68 7.46,-4.02 12.35,-4.02l74.85 0c7.55,0 13.87,0.14 18.75,0.42 4.87,0.28 9.38,0.63 13.42,0.99 11.58,1.55 22.03,4.16 31.32,7.9 9.3,3.67 17.23,8.54 23.71,14.53 6.48,6 11.43,13.06 14.86,21.24 3.44,8.18 5.11,17.57 5.11,28.22 0,8.89 -1.22,17.08 -3.65,24.41 -2.52,7.41 -6.11,13.97 -10.9,19.76 -4.74,5.79 -10.6,10.79 -17.61,15.03 -7.02,4.3 -15.02,7.69 -23.94,10.37 4.34,1.9 8.38,4.23 12.19,6.98 3.82,2.76 7.4,6.14 10.75,10.09 3.35,3.95 6.56,8.4 9.53,13.48 2.97,5.01 5.87,10.72 8.69,17.07l24.47 52.85c2.21,5.22 3.74,9.03 4.42,11.5 0.76,2.4 1.14,4.3 1.14,5.72zm-75.92 -181.68c0,-8.82 -2.14,-16.3 -6.48,-22.3 -4.34,-6.07 -11.43,-10.37 -21.26,-12.84 -2.97,-0.71 -6.33,-1.2 -10.14,-1.62 -3.81,-0.43 -9.07,-0.64 -15.78,-0.64l-26.37 0 0 75.78 29.95 0c8.39,0 15.63,-0.92 21.88,-2.82 6.33,-1.84 11.51,-4.45 15.7,-7.84 4.2,-3.31 7.32,-7.4 9.38,-12.06 2.05,-4.66 3.12,-9.88 3.12,-15.66z"/>
    <path id="_1" class="fil8" d="M8484.52 2573.32c0,22.16 -2.97,41.98 -8.91,59.48 -5.95,17.5 -14.79,32.39 -26.61,44.52 -11.73,12.21 -26.29,21.52 -43.59,27.94 -17.39,6.42 -37.44,9.6 -60.22,9.6 -22.5,0 -42.08,-2.76 -58.78,-8.19 -16.76,-5.43 -30.71,-13.69 -41.92,-24.9 -11.13,-11.15 -19.52,-25.33 -25.08,-42.55 -5.56,-17.21 -8.38,-37.6 -8.38,-61.17 0,-21.59 2.97,-41.06 8.91,-58.35 5.95,-17.28 14.79,-31.96 26.61,-44.1 11.73,-12.13 26.3,-21.44 43.6,-27.86 17.38,-6.5 37.5,-9.74 60.45,-9.74 21.88,0 41.16,2.68 57.93,8.04 16.69,5.36 30.72,13.62 41.92,24.84 11.29,11.15 19.75,25.19 25.46,42.19 5.72,17.07 8.61,37.11 8.61,60.25zm-61.74 2.75c0,-14.04 -1.22,-26.81 -3.58,-38.31 -2.36,-11.5 -6.4,-21.37 -12.12,-29.56 -5.71,-8.18 -13.34,-14.53 -22.87,-19.05 -9.53,-4.44 -21.42,-6.7 -35.67,-6.7 -14.4,0 -26.45,2.54 -36.06,7.55 -9.68,5.01 -17.53,11.78 -23.47,20.18 -5.96,8.39 -10.15,18.2 -12.58,29.42 -2.44,11.29 -3.66,23.14 -3.66,35.7 0,14.6 1.22,27.73 3.59,39.37 2.35,11.64 6.39,21.59 12.03,29.91 5.64,8.26 13.19,14.54 22.72,18.91 9.53,4.31 21.5,6.49 35.9,6.49 14.41,0 26.45,-2.47 36.06,-7.48 9.68,-4.93 17.53,-11.71 23.47,-20.24 5.96,-8.54 10.15,-18.49 12.59,-29.85 2.43,-11.36 3.65,-23.49 3.65,-36.34z"/>
    <path id="_2" class="fil8" d="M8765.95 2484.28c0,3.95 -0.15,7.41 -0.54,10.3 -0.37,2.9 -0.9,5.22 -1.6,6.92 -0.68,1.76 -1.44,2.96 -2.44,3.6 -0.98,0.7 -2.13,1.05 -3.42,1.05 -1.98,0 -5.11,-1.27 -9.38,-3.73 -4.34,-2.47 -10.06,-5.23 -17.22,-8.12 -7.17,-2.89 -15.63,-5.64 -25.54,-8.11 -9.91,-2.47 -21.43,-3.74 -34.53,-3.74 -13.95,0 -26.6,2.26 -37.89,6.7 -11.35,4.52 -21.03,10.87 -29.04,19.05 -8.01,8.26 -14.17,18.06 -18.52,29.63 -4.35,11.5 -6.48,24.2 -6.48,38.17 0,15.31 2.21,28.79 6.56,40.5 4.42,11.64 10.59,21.38 18.44,29.28 7.93,7.83 17.46,13.76 28.51,17.78 11.13,4.02 23.4,6 36.75,6 6.54,0 13.02,-0.71 19.43,-2.05 6.48,-1.41 12.43,-3.52 17.91,-6.28l0 -62.37 -54.65 0c-2.67,0 -4.72,-1.55 -6.25,-4.65 -1.46,-3.11 -2.21,-8.33 -2.21,-15.81 0,-3.81 0.15,-7.05 0.53,-9.66 0.39,-2.61 0.99,-4.73 1.68,-6.28 0.76,-1.62 1.68,-2.75 2.66,-3.53 1.07,-0.78 2.29,-1.13 3.59,-1.13l97.57 0c2.36,0 4.49,0.35 6.33,1.13 1.9,0.78 3.5,1.91 4.95,3.46 1.37,1.48 2.51,3.31 3.2,5.43 0.76,2.19 1.14,4.66 1.14,7.41l0 106.68c0,4.16 -0.76,7.76 -2.36,10.86 -1.52,3.11 -4.73,5.58 -9.6,7.34 -4.81,1.84 -10.83,3.67 -17.99,5.65 -7.17,1.9 -14.56,3.59 -22.27,4.93 -7.61,1.41 -15.39,2.47 -23.23,3.11 -7.78,0.7 -15.64,1.06 -23.57,1.06 -23.09,0 -43.74,-3.11 -62.04,-9.25 -18.22,-6.13 -33.69,-15.02 -46.35,-26.67 -12.65,-11.64 -22.33,-25.82 -29.04,-42.61 -6.71,-16.79 -10.06,-35.77 -10.06,-57.01 0,-21.94 3.59,-41.63 10.75,-59.05 7.09,-17.5 17.22,-32.32 30.34,-44.52 13.1,-12.21 28.88,-21.52 47.48,-28.01 18.53,-6.5 39.18,-9.74 61.9,-9.74 12.58,0 23.93,0.77 34.22,2.4 10.22,1.62 19.21,3.53 26.91,5.85 7.63,2.26 14.03,4.73 19.06,7.34 5.11,2.68 8.61,4.94 10.6,6.92 2.05,1.9 3.5,4.65 4.34,8.18 0.91,3.46 1.37,8.68 1.37,15.59z"/>
    <path id="_3" class="fil8" d="M8884.48 2702.79c0,1.34 -0.45,2.61 -1.45,3.74 -0.99,1.06 -2.59,1.98 -4.8,2.68 -2.21,0.64 -5.25,1.2 -8.92,1.62 -3.73,0.43 -8.53,0.64 -14.33,0.64 -5.64,0 -10.36,-0.21 -14.18,-0.64 -3.81,-0.42 -6.86,-0.98 -9.06,-1.62 -2.22,-0.7 -3.82,-1.62 -4.81,-2.68 -0.99,-1.13 -1.45,-2.4 -1.45,-3.74l0 -252.73c0,-1.34 0.46,-2.61 1.45,-3.74 0.99,-1.05 2.59,-1.97 4.96,-2.68 2.28,-0.7 5.25,-1.2 8.99,-1.62 3.74,-0.42 8.46,-0.63 14.1,-0.63 5.8,0 10.6,0.21 14.33,0.63 3.67,0.42 6.71,0.92 8.92,1.62 2.21,0.71 3.81,1.63 4.8,2.68 1,1.13 1.45,2.4 1.45,3.74l0 252.73z"/>
    <path id="_4" class="fil8" d="M9185.73 2691.15c0,3.18 -0.61,6 -1.75,8.54 -1.23,2.47 -2.82,4.51 -4.88,6.21 -1.98,1.62 -4.35,2.82 -7.1,3.59 -2.81,0.78 -5.56,1.13 -8.38,1.13l-25.07 0c-5.27,0 -9.76,-0.49 -13.57,-1.41 -3.73,-0.99 -7.24,-2.75 -10.44,-5.29 -3.29,-2.54 -6.33,-6 -9.3,-10.37 -2.97,-4.3 -6.33,-9.95 -10.06,-16.86l-71.74 -125.1c-4.19,-7.48 -8.38,-15.52 -12.73,-24.13 -4.34,-8.61 -8.15,-17 -11.58,-25.12l-0.46 0c0.61,9.95 1.07,19.83 1.37,29.71 0.3,9.81 0.46,20.04 0.46,30.48l0 140.05c0,1.34 -0.38,2.61 -1.22,3.74 -0.84,1.06 -2.29,1.98 -4.26,2.75 -1.99,0.78 -4.74,1.34 -8.16,1.76 -3.44,0.43 -7.85,0.64 -13.19,0.64 -5.26,0 -9.61,-0.21 -13.03,-0.64 -3.44,-0.42 -6.11,-0.98 -8.01,-1.76 -1.98,-0.7 -3.36,-1.69 -4.04,-2.75 -0.76,-1.13 -1.14,-2.4 -1.14,-3.74l0 -240.45c0,-6.49 2.05,-11.36 6.17,-14.61 4.04,-3.24 9.07,-4.86 15.09,-4.86l31.48 0c5.64,0 10.45,0.42 14.34,1.34 3.89,0.91 7.31,2.39 10.36,4.44 3.06,2.05 5.95,4.94 8.62,8.61 2.67,3.6 5.41,8.18 8.23,13.55l56.18 97.85c3.28,5.93 6.47,11.79 9.68,17.5 3.2,5.72 6.32,11.43 9.22,17.15 2.97,5.71 5.88,11.36 8.7,16.86 2.89,5.57 5.64,11.08 8.3,16.58l0.23 0c-0.45,-9.67 -0.84,-19.75 -1.07,-30.2 -0.23,-10.51 -0.3,-20.53 -0.3,-30.05l0 -125.59c0,-1.34 0.45,-2.61 1.37,-3.74 0.83,-1.06 2.37,-2.05 4.42,-2.89 2.14,-0.85 4.88,-1.41 8.31,-1.77 3.43,-0.35 7.85,-0.49 13.19,-0.49 5.1,0 9.38,0.14 12.8,0.49 3.44,0.36 6.02,0.92 7.93,1.77 1.83,0.84 3.2,1.83 3.89,2.89 0.76,1.13 1.14,2.33 1.14,3.74l0 240.45z"/>
    <path id="_5" class="fil8" d="M9440.78 2464.95c0,4.02 -0.15,7.41 -0.54,10.3 -0.38,2.82 -0.91,5.08 -1.67,6.78 -0.76,1.76 -1.68,3.03 -2.82,3.81 -1.07,0.84 -2.37,1.27 -3.65,1.27l-72.27 0 0 215.68c0,1.34 -0.45,2.61 -1.45,3.74 -0.99,1.06 -2.59,1.98 -4.81,2.68 -2.2,0.64 -5.25,1.2 -9.06,1.62 -3.81,0.43 -8.54,0.64 -14.19,0.64 -5.64,0 -10.36,-0.21 -14.17,-0.64 -3.81,-0.42 -6.86,-0.98 -9.08,-1.62 -2.2,-0.7 -3.8,-1.62 -4.79,-2.68 -1,-1.13 -1.45,-2.4 -1.45,-3.74l0 -215.68 -72.27 0c-1.44,0 -2.74,-0.43 -3.8,-1.27 -0.99,-0.78 -1.91,-2.05 -2.67,-3.81 -0.69,-1.7 -1.3,-3.96 -1.68,-6.78 -0.38,-2.89 -0.53,-6.28 -0.53,-10.3 0,-4.09 0.15,-7.62 0.53,-10.51 0.38,-2.89 0.99,-5.22 1.68,-6.92 0.76,-1.76 1.68,-2.96 2.67,-3.74 1.06,-0.77 2.36,-1.12 3.8,-1.12l203.54 0c1.28,0 2.5,0.35 3.65,1.12 1.14,0.78 2.06,1.98 2.82,3.74 0.76,1.7 1.29,4.03 1.67,6.92 0.39,2.89 0.54,6.42 0.54,10.51z"/>
    <path id="_6" class="fil8" d="M9700.64 2702.79c0,1.34 -0.46,2.61 -1.45,3.74 -1,1.06 -2.59,1.98 -4.8,2.68 -2.21,0.64 -5.18,1.2 -8.92,1.62 -3.66,0.43 -8.39,0.64 -13.95,0.64 -5.79,0 -10.6,-0.21 -14.41,-0.64 -3.81,-0.42 -6.7,-0.98 -8.92,-1.62 -2.13,-0.7 -3.66,-1.62 -4.64,-2.68 -1,-1.13 -1.45,-2.4 -1.45,-3.74l0 -108.16 -108.39 0 0 108.16c0,1.34 -0.47,2.61 -1.38,3.74 -0.84,1.06 -2.44,1.98 -4.65,2.68 -2.21,0.64 -5.19,1.2 -8.92,1.62 -3.66,0.43 -8.45,0.64 -14.18,0.64 -5.64,0 -10.36,-0.21 -14.18,-0.64 -3.81,-0.42 -6.78,-0.98 -8.98,-1.62 -2.22,-0.7 -3.82,-1.62 -4.81,-2.68 -1,-1.13 -1.45,-2.4 -1.45,-3.74l0 -252.73c0,-1.34 0.45,-2.61 1.45,-3.74 0.99,-1.05 2.59,-1.97 4.81,-2.68 2.2,-0.7 5.17,-1.2 8.98,-1.62 3.82,-0.42 8.54,-0.63 14.18,-0.63 5.73,0 10.52,0.21 14.18,0.63 3.73,0.42 6.71,0.99 8.92,1.62 2.21,0.71 3.81,1.63 4.65,2.68 0.91,1.13 1.38,2.4 1.38,3.74l0 98.43 108.39 0 0 -98.43c0,-1.34 0.45,-2.61 1.45,-3.74 0.98,-1.05 2.51,-1.97 4.64,-2.68 2.22,-0.63 5.11,-1.2 8.92,-1.62 3.81,-0.42 8.62,-0.63 14.41,-0.63 5.56,0 10.29,0.21 13.95,0.63 3.74,0.42 6.71,0.92 8.92,1.62 2.21,0.71 3.8,1.63 4.8,2.68 0.99,1.13 1.45,2.4 1.45,3.74l0 252.73z"/>
    <path id="_7" class="fil9" d="M10064.62 2633.51c0,8.39 -1.15,16.15 -3.44,23.21 -2.35,7.13 -5.56,13.48 -9.75,19.19 -4.2,5.64 -9.22,10.58 -15.1,14.89 -5.86,4.23 -12.5,7.83 -19.89,10.72 -7.4,2.89 -15.32,5.08 -23.71,6.49 -8.46,1.48 -18.07,2.19 -28.97,2.19l-75.54 0c-3.42,0 -6.7,-1.06 -9.75,-3.17 -3.05,-2.19 -4.57,-5.93 -4.57,-11.29l0 -238.62c0,-5.36 1.52,-9.1 4.57,-11.29 3.05,-2.12 6.33,-3.17 9.75,-3.17l65.71 0c17.31,0 31.48,1.48 42.54,4.51 10.97,3.03 20.2,7.48 27.59,13.27 7.4,5.78 12.96,12.91 16.69,21.3 3.74,8.4 5.58,17.92 5.58,28.51 0,6.35 -0.85,12.41 -2.45,18.2 -1.67,5.79 -4.11,11.15 -7.32,16.02 -3.2,4.94 -7.16,9.31 -12.04,13.12 -4.88,3.88 -10.44,7.06 -16.7,9.52 7.93,1.42 15.33,3.88 22.19,7.55 6.79,3.67 12.81,8.33 17.99,13.97 5.1,5.65 9.14,12.28 12.12,19.83 2.97,7.62 4.5,15.95 4.5,25.05zm-57.63 -119.81c0,-6.49 -0.99,-12.34 -2.9,-17.63 -1.91,-5.23 -4.95,-9.67 -9.15,-13.34 -4.19,-3.67 -9.6,-6.42 -16.31,-8.4 -6.71,-1.9 -15.55,-2.89 -26.6,-2.89l-39.71 0 0 86.78 43.75 0c9.98,0 17.99,-1.19 24.16,-3.59 6.1,-2.47 11.13,-5.72 15.17,-9.74 3.96,-4.09 6.93,-8.89 8.77,-14.32 1.9,-5.44 2.82,-11.08 2.82,-16.87zm17.38 121.92c0,-7.97 -1.37,-15.02 -4.11,-21.09 -2.75,-6.07 -6.79,-11.15 -12.05,-15.31 -5.34,-4.17 -11.89,-7.27 -19.9,-9.46 -7.92,-2.11 -17.99,-3.17 -30.03,-3.17l-45.96 0 0 94.4 55.8 0c8.76,0 16.46,-0.99 23.01,-2.89 6.56,-1.91 12.27,-4.8 17.31,-8.61 4.96,-3.81 8.83,-8.54 11.65,-14.18 2.82,-5.65 4.28,-12.21 4.28,-19.69z"/>
    <polygon class="fil10" points="9242.32,2874.85 9330.09,2874.85 9330.21,2874.96 9330.21,2894.68 9330.09,2894.78 9263.73,2894.78 9263.73,2940.57 9317.66,2940.57 9317.66,2960.44 9263.73,2960.44 9263.73,3026.05 9263.62,3026.16 9242.32,3026.16 9242.2,3026.05 9242.2,2874.96 "/>
    <path id="_1_0" class="fil10" d="M9367.25 2977.26c0,7.52 2.63,14.33 7.92,20.47 2.33,2.43 4.12,4.02 5.38,4.76 5.87,4.13 12.27,6.21 19.21,6.21 8.46,0 16.01,-2.97 22.53,-8.89 2.62,-2.54 4.46,-4.77 5.48,-6.64 3.05,-5.08 4.57,-10.37 4.57,-15.8l0 -0.32c0,-7.9 -2.93,-15.03 -8.8,-21.38 -2.55,-2.47 -4.27,-3.88 -5.14,-4.23 -1.26,-0.99 -2.48,-1.73 -3.59,-2.29 -4.84,-2.4 -9.86,-3.6 -15.05,-3.6 -7.89,0 -15.14,2.72 -21.69,8.15 -2.28,2.15 -3.73,3.74 -4.35,4.76 -4.3,5.57 -6.47,11.85 -6.47,18.8zm32.51 -51.68c12.12,0 23.21,3.64 33.28,10.87 1.4,0.95 3.42,2.68 6.01,5.15 5.15,5.32 8.77,10.76 10.94,16.33 2.59,6.21 3.93,12.67 3.93,19.33 0,8.68 -2.29,17.04 -6.83,25.02 -1.55,2.61 -3.69,5.5 -6.36,8.57 -2.9,3.1 -5.26,5.29 -7.05,6.53 -1.98,1.51 -3.88,2.78 -5.68,3.81 -8.88,4.97 -18.11,7.44 -27.71,7.44l-0.99 0c-10.14,0 -19.86,-2.75 -29.15,-8.26 -1.8,-1.23 -3.4,-2.39 -4.81,-3.52 -2.9,-2.26 -4.99,-4.2 -6.25,-5.79 -1.56,-1.66 -3.01,-3.42 -4.35,-5.36 -1.48,-2.22 -2.74,-4.34 -3.8,-6.42 -3.47,-7.16 -5.23,-14.29 -5.23,-21.38l0 -1.55c0,-7.73 2.06,-15.49 6.25,-23.25 1.18,-2.15 2.6,-4.31 4.24,-6.53 1.25,-1.66 3.15,-3.74 5.71,-6.31 3.62,-3.07 6.25,-5.08 7.82,-5.96 9.15,-5.83 19.16,-8.72 30.03,-8.72z"/>
    <path id="_2_1" class="fil10" d="M9527.14 3026.16l-1 0c-19.21,0 -32.96,-6.7 -41.31,-20.14 -2.9,-5.33 -4.34,-11.54 -4.34,-18.74l0 -59.83 0.3 -0.32 20.89 0 0.34 0.32 0 60.04c0,8.47 3.81,14.08 11.4,16.76 3.19,1.31 7.28,1.98 12.27,1.98l1.79 0c9.08,0 15.52,-1.34 19.33,-3.95 4.99,-2.76 7.47,-7.84 7.47,-15.28l0 -59.55 0.22 -0.32 21.01 0 0.22 0.32 0 97.9 -0.22 0.28 -21.01 0 -0.22 -0.28 0 -6.63 -0.23 0c-3.77,2.61 -8.73,4.76 -14.83,6.42 -3.28,0.67 -7.32,1.02 -12.08,1.02z"/>
    <path id="_3_2" class="fil10" d="M9658.36 2927.13l0.99 0c19.21,0 32.98,6.74 41.32,20.18 2.89,5.29 4.35,11.54 4.35,18.7l0 59.83 -0.24 0.32 -20.95 0 -0.23 -0.32 0 -60.04c0,-8.47 -3.85,-14.04 -11.52,-16.76 -3.2,-1.3 -7.27,-1.94 -12.26,-1.94l-1.79 0c-9.08,0 -15.52,1.31 -19.33,3.92 -4.92,2.75 -7.36,7.86 -7.36,15.31l0 59.51 -0.35 0.32 -20.88 0 -0.34 -0.32 0 -97.86 0.34 -0.32 20.88 0 0.35 0.32 0 5.57 0.12 0c3.77,-1.94 8.76,-3.7 14.94,-5.36 3.2,-0.7 7.2,-1.06 11.96,-1.06z"/>
    <path id="_4_3" class="fil10" d="M9818.95 2976.95c0,-7.41 -2.52,-14.08 -7.51,-19.94 -0.5,-0.7 -1.79,-1.97 -3.89,-3.81 -2.25,-1.87 -4.46,-3.31 -6.71,-4.33 -4.99,-2.23 -9.65,-3.32 -13.95,-3.32 -9.68,0 -17.88,3.42 -24.59,10.34 -5.56,6.28 -8.34,13.3 -8.34,21.06l0 0.42c0,4.69 1.06,9.24 3.25,13.65 1.25,2.54 3.15,5.19 5.67,7.94 6.71,6.49 14.59,9.74 23.67,9.74 4.46,0 8.95,-0.96 13.52,-2.9 1.72,-0.77 3.74,-1.97 6.14,-3.63l1.99 -1.66c1.79,-1.62 3.16,-3.07 4.15,-4.34 4.38,-5.71 6.6,-11.92 6.6,-18.69l0 -0.53zm21.53 -101.99l0 151.2 -21.53 0 0 -10.34c-1.26,1.24 -2.52,2.37 -3.71,3.43 -2.24,1.69 -4.19,3.06 -5.9,4.02 -2.25,1.23 -4.76,2.29 -7.58,3.21 -5.68,1.44 -10.49,2.15 -14.41,2.15l-1.45 0c-9.6,0 -18.83,-2.51 -27.59,-7.55 -1.8,-0.95 -3.74,-2.19 -5.79,-3.7 -1.8,-1.31 -4.16,-3.5 -7.06,-6.53 -2.67,-3.07 -4.76,-5.96 -6.25,-8.57 -4.61,-7.98 -6.94,-16.37 -6.94,-25.12 0,-6.6 1.3,-13.02 3.93,-19.23 2.21,-5.5 5.91,-10.97 11.05,-16.4 2.6,-2.44 4.57,-4.13 5.91,-5.08 10.06,-7.23 21.12,-10.87 33.16,-10.87l0.11 0c10.45,0 19.71,3 27.83,9 1.9,1.44 3.43,2.85 4.57,4.23l0.12 0 0 -63.85 0.11 -0.11 21.3 0 0.12 0.11z"/>
    <path id="_5_4" class="fil10" d="M9889.04 2964.35l54.16 0 0 -0.1c-1.26,-3.53 -4.16,-7.52 -8.69,-12 -5.68,-4.48 -11.85,-6.7 -18.56,-6.7 -10.18,0 -18.57,4.97 -25.12,14.99l-1.79 3.81zm25.46 -38.77l3.24 0c10.86,0 21.35,4.06 31.36,12.1 4.93,4.48 8.32,8.33 10.18,11.57 5.41,8.89 8.16,18.21 8.16,27.91l0 3.1c0,1.94 -0.15,2.9 -0.46,2.9l-79.96 0c1.71,7.37 4.57,12.87 8.5,16.54 6.02,6 12.88,9 20.54,9 9.68,0 17.8,-4.52 24.36,-13.55 1.26,-2.26 2.02,-3.46 2.21,-3.53 12.8,5.4 19.29,8.15 19.44,8.29 -1.03,2.4 -3.39,6.04 -7.01,10.83 -10.98,11.93 -23.87,17.89 -38.77,17.89l-0.45 0c-15.33,0 -28.51,-6.28 -39.53,-18.91 -7.59,-9.84 -11.4,-20.64 -11.4,-32.35l0 -0.42c0,-16.13 6.68,-29.74 20.02,-40.93 9.83,-6.95 19.66,-10.44 29.57,-10.44z"/>
    <path id="_6_5" class="fil10" d="M10040.23 2926.53l2.79 0c7.35,0 15.02,1.98 22.9,6l0 0.11c-3.12,13.09 -4.84,19.93 -5.14,20.56 -7.17,-4.33 -13.49,-6.52 -18.98,-6.52l-1.79 0c-7.17,0 -13.45,2.43 -18.87,7.34 -4.11,4.62 -6.13,13.37 -6.13,26.24l0 45.48 -0.24 0.31 -20.89 0 -0.34 -0.31 0 -97.05 0.34 -0.22 20.89 0 0.24 0.22 0 7.44c8.19,-6.39 16.57,-9.6 25.22,-9.6z"/>
    <line class="fil5 str1" x1="8353.57" y1="3174.97" x2="10068.47" y2= "3174.97" />
    <g>
     <polygon class="fil10" points="8286.78,4442.98 8257.85,4442.98 8257.85,4423.05 8286.78,4423.05 8286.78,4396.48 8286.89,4396.37 8308.2,4396.37 8308.31,4396.48 8308.31,4423.05 8337.02,4423.05 8337.13,4423.15 8337.13,4442.87 8337.02,4442.98 8308.31,4442.98 8308.31,4469.75 8286.78,4469.75 "/>
     <path id="_1_6" class="fil10" d="M8374.67 4393.27c0,7.73 2.79,14.68 8.39,20.88 1.91,2.05 3.58,3.6 5.03,4.66 7.28,5.08 15.36,7.62 24.2,7.62 9.3,0 17.61,-2.71 24.92,-8.15 1.99,-1.73 3.67,-3.35 5.01,-4.87 5.22,-6.13 7.81,-12.84 7.81,-20.14 0,-8.01 -2.94,-15.17 -8.81,-21.48 -2.51,-2.37 -4.34,-3.92 -5.49,-4.66 -7.05,-4.83 -14.82,-7.23 -23.32,-7.23 -9.61,0 -18.11,2.96 -25.57,8.89 -2.82,2.47 -4.39,3.95 -4.69,4.44 -4.99,6.03 -7.48,12.74 -7.48,20.04zm37.74 -53.34c12.5,0 24.05,3.35 34.6,10.02 1.87,1.27 4.24,3.03 7.06,5.4 3.27,3.1 5.41,5.32 6.36,6.7 1.95,2.4 3.62,4.9 5.04,7.44 4.07,7.59 6.13,15.45 6.13,23.57l0 0.53c0,10.05 -3.24,19.68 -9.72,28.93l-29.39 44.55c-11.01,16.72 -16.69,25.33 -17.07,25.83l-0.12 0 -18.18 -10.23 0 -0.11c0,-0.07 2.37,-3.67 7.13,-10.83l17 -25.75c-3.01,0.35 -5.68,0.53 -8.04,0.53l-1.68 0c-9.18,0 -18.22,-2.12 -27.14,-6.32 -2.74,-1.3 -5.75,-3.03 -8.95,-5.19 -1.68,-1.23 -3.77,-2.92 -6.26,-5.15 -3.04,-3.03 -5.33,-5.71 -6.89,-8.07 -2.02,-2.9 -3.66,-5.72 -4.92,-8.47 -2.89,-6.6 -4.34,-13.02 -4.34,-19.23l0 -1.73c0,-8.15 2.36,-16.3 7.12,-24.52 1.57,-2.54 3.62,-5.29 6.14,-8.25 1.56,-1.8 3.66,-3.78 6.25,-5.89 5.68,-4.55 11.74,-7.94 18.22,-10.13 6.9,-2.43 14.14,-3.63 21.65,-3.63z"/>
     <polygon id="_2_7" class="fil10" points="8537.12,4343.67 8537.12,4485.66 8537,4485.77 8515.81,4485.77 8515.69,4485.66 8515.69,4363.39 8498.58,4363.39 8498.5,4363.28 8498.5,4343.67 "/>
     <path id="_3_8" class="fil10" d="M8659.5 4380.36c0,5.36 2.28,10.19 6.94,14.46 4.87,4.13 10.6,6.21 17.07,6.21 6.56,0 12.32,-2.15 17.31,-6.42 4.46,-4.2 6.71,-9 6.71,-14.36 0,-5.5 -2.33,-10.33 -6.94,-14.46 -2.59,-2.22 -5.34,-3.81 -8.16,-4.76 -2.89,-0.92 -5.75,-1.34 -8.57,-1.34l-0.69 0c-6.1,0 -11.62,1.94 -16.55,5.89 -4.76,4.27 -7.12,9.2 -7.12,14.78zm-8.84 67.87c0,7.34 3.2,13.76 9.6,19.34 2.56,1.94 4.66,3.28 6.29,4.05 5.18,2.68 10.87,4.03 16.96,4.03 8.7,0 16.43,-2.65 23.22,-7.98 2.7,-2.47 4.26,-4.16 4.69,-5.04 3.27,-4.55 4.91,-9.17 4.91,-13.87l0 -1.02c0,-5.26 -2.02,-10.34 -6.03,-15.31 -2.17,-2.33 -4.11,-4.06 -5.9,-5.15 -6.33,-4.2 -13.31,-6.32 -20.89,-6.32 -8.34,0 -15.77,2.44 -22.33,7.34 -1.8,1.45 -3.28,2.82 -4.46,4.13 -4.04,4.9 -6.06,10.16 -6.06,15.8zm32.85 -108.62c10.94,0 20.85,3.25 29.69,9.74 2.98,2.4 5.08,4.37 6.25,5.89 4.24,4.87 7.17,10.37 8.73,16.44 0.65,2.89 1,5.54 1,7.94l0 1.23c0,6.99 -2.22,13.8 -6.6,20.46 -1.26,1.8 -2.82,3.67 -4.69,5.61 -0.38,0.46 -1.33,1.41 -2.9,2.79 1.87,1.09 4.09,2.72 6.71,4.83 3.21,2.86 4.99,4.62 5.34,5.4 1.87,2.05 3.54,4.38 5.03,6.92 3.97,6.8 5.95,13.97 5.95,21.37 0,10.9 -4.05,20.82 -12.08,29.78 -2.1,2.22 -4.09,4.06 -6.03,5.57 -2.4,1.73 -4.42,3.07 -6.14,4.06 -9.29,5.29 -19.32,7.94 -30.03,7.94l-0.46 0c-11.77,0 -22.6,-3.18 -32.51,-9.49 -2.14,-1.38 -4.41,-3.18 -6.78,-5.4 -2.4,-2.26 -4.19,-4.13 -5.37,-5.57 -2.22,-2.9 -3.86,-5.54 -4.93,-7.94 -3.04,-6.07 -4.57,-12.1 -4.57,-18.1l0 -1.55c0,-7.09 2.1,-14.22 6.26,-21.38 1.55,-2.58 3.73,-5.36 6.47,-8.4 2.74,-2.61 4.66,-4.3 5.68,-5.04 1.8,-1.31 3.28,-2.33 4.5,-3 -2.63,-2.36 -4.42,-4.16 -5.37,-5.5 -5.87,-7.31 -8.81,-15.24 -8.81,-23.85 0,-9.95 3.7,-18.84 11.17,-26.78 2.9,-2.68 4.8,-4.3 5.68,-4.87 2.51,-1.8 4.8,-3.14 6.82,-4.02 6.97,-3.38 14.33,-5.08 21.99,-5.08z"/>
     <path id="_4_9" class="fil10" d="M8859.36 4342.82l0.12 0.11 0 19.75 -0.12 0.11 -47.45 0 -7.39 25.19 0.12 0c2.97,-0.32 5.75,-0.5 8.39,-0.5l1.78 0c9,0 17.95,1.94 26.91,5.9 3.29,1.44 6.71,3.42 10.37,5.89 1.26,0.88 2.78,2.11 4.57,3.7 3.28,2.97 5.34,5.05 6.14,6.21 2.02,2.33 3.59,4.45 4.69,6.32 5.07,8.32 7.61,17.11 7.61,26.35 0,11.64 -3.99,22.4 -11.96,32.24 -1.18,1.52 -3.24,3.6 -6.13,6.32 -2.97,2.54 -5.76,4.58 -8.39,6.17 -10.71,6.35 -22.22,9.53 -34.49,9.53l-0.57 0c-11.9,0 -23.1,-3.04 -33.58,-9.11 -2.4,-1.37 -5.07,-3.28 -8.04,-5.68 -2.98,-2.61 -4.88,-4.44 -5.73,-5.46 -2.74,-3.25 -4.72,-5.89 -5.9,-7.98 -1.41,-2.32 -2.14,-3.59 -2.14,-3.81 12.16,-5.32 18.68,-8.15 19.56,-8.46 4.31,8.32 11.4,14.32 21.23,17.95 4.92,1.73 9.87,2.61 14.94,2.61 9.91,0 18.75,-2.96 26.6,-8.89 2.21,-1.94 3.86,-3.49 4.88,-4.65 5.37,-6.35 8.04,-13.2 8.04,-20.57l0 -0.53c0,-7.72 -2.93,-14.85 -8.8,-21.38 -2.1,-2.15 -3.7,-3.6 -4.8,-4.34 -7.66,-5.61 -16.36,-8.39 -26.04,-8.39 -7.43,0 -14.55,1.83 -21.3,5.5l-20.43 10.23 13.94 -48.08c5.42,-18.67 8.16,-28.12 8.16,-28.3l1.22 -3.95 63.99 0z"/>
     <path id="_5_10" class="fil10" d="M8947.91 4338.59c11.09,0 20.62,2.68 28.59,8.08 1.48,0.88 3.62,2.61 6.36,5.15 3.12,3.1 5.45,5.92 7.01,8.46 4.84,7.94 7.29,16.23 7.29,24.91 0,8.01 -2.14,15.21 -6.37,21.63l-35.29 35.84 -25.47 25.86 0 0.1 23.02 -0.1 43.31 0 0.1 0.1 0 19.83 -0.1 0.11 -96.14 0 -0.1 -0.11 0 -19.23 34.49 -35.03 22.22 -22.65 16.43 -16.72c1.48,-2.82 2.24,-5.92 2.24,-9.31l0 -0.6c0,-5.33 -1.67,-10.48 -5.03,-15.52 -0.91,-1.31 -2.17,-2.75 -3.81,-4.34 -1.94,-1.66 -3.7,-2.86 -5.25,-3.6 -3.55,-1.87 -7.93,-2.82 -13.04,-2.82l-0.92 0c-13.26,0 -21.84,5.75 -25.8,17.18 -1.26,3.98 -1.87,7.23 -1.87,9.7l-21.58 0 0 -0.42c0,-4.41 1.04,-9.67 3.02,-15.81 1.41,-3.84 2.97,-7.09 4.69,-9.7 4.99,-8.01 12.08,-13.79 21.23,-17.36 6.25,-2.43 13.19,-3.63 20.77,-3.63z"/>
     <path id="_6_11" class="fil10" d="M9118.43 4342.82l0.12 0.11 0 19.75 -0.12 0.11 -47.45 0 -7.39 25.19 0.12 0c2.97,-0.32 5.74,-0.5 8.38,-0.5l1.78 0c9,0 17.96,1.94 26.92,5.9 3.28,1.44 6.71,3.42 10.37,5.89 1.25,0.88 2.77,2.11 4.57,3.7 3.27,2.97 5.33,5.05 6.13,6.21 2.02,2.33 3.59,4.45 4.69,6.32 5.07,8.32 7.62,17.11 7.62,26.35 0,11.64 -4,22.4 -11.96,32.24 -1.19,1.52 -3.24,3.6 -6.14,6.32 -2.97,2.54 -5.75,4.58 -8.38,6.17 -10.72,6.35 -22.22,9.53 -34.5,9.53l-0.57 0c-11.89,0 -23.1,-3.04 -33.58,-9.11 -2.4,-1.37 -5.06,-3.28 -8.04,-5.68 -2.98,-2.61 -4.88,-4.44 -5.72,-5.46 -2.75,-3.25 -4.72,-5.89 -5.9,-7.98 -1.42,-2.32 -2.14,-3.59 -2.14,-3.81 12.15,-5.32 18.68,-8.15 19.55,-8.46 4.32,8.32 11.4,14.32 21.23,17.95 4.92,1.73 9.88,2.61 14.95,2.61 9.9,0 18.74,-2.96 26.6,-8.89 2.21,-1.94 3.85,-3.49 4.88,-4.65 5.37,-6.35 8.04,-13.2 8.04,-20.57l0 -0.53c0,-7.72 -2.93,-14.85 -8.81,-21.38 -2.09,-2.15 -3.69,-3.6 -4.8,-4.34 -7.66,-5.61 -16.35,-8.39 -26.03,-8.39 -7.44,0 -14.56,1.83 -21.31,5.5l-20.43 10.23 13.95 -48.08c5.41,-18.67 8.16,-28.12 8.16,-28.3l1.22 -3.95 63.99 0z"/>
     <path id="_7_12" class="fil10" d="M9225.04 4340.88l0.23 0c19.06,0 35.56,8.05 49.47,24.17 11.7,14.67 17.53,31.57 17.53,50.66 0,20.18 -6.71,37.99 -20.08,53.41 -13.65,14.07 -29.36,21.1 -47.15,21.1 -18.75,0 -35.18,-7.98 -49.32,-23.89 -11.77,-15.03 -17.64,-32 -17.64,-50.94 0,-20.04 6.62,-37.82 19.96,-53.34 13.77,-14.11 29.43,-21.17 47,-21.17zm-45.43 74.83c0,16.19 5.45,30.12 16.31,41.84 8.77,8.53 18.52,12.8 29.24,12.8 13.87,0 25.68,-6.81 35.51,-20.46 6.79,-10.41 10.18,-21.84 10.18,-34.29 0,-17.92 -6.4,-32.84 -19.21,-44.77 -8.26,-6.73 -16.95,-10.12 -26.03,-10.12l-0.57 0c-13.53,0 -25.23,6.67 -35.03,20.04 -6.93,10.54 -10.4,22.19 -10.4,34.96z"/>
     <path id="_8" class="fil10" d="M9364.66 4338.59c11.08,0 20.61,2.68 28.59,8.08 1.48,0.88 3.62,2.61 6.36,5.15 3.12,3.1 5.44,5.92 7.01,8.46 4.84,7.94 7.28,16.23 7.28,24.91 0,8.01 -2.14,15.21 -6.36,21.63l-35.3 35.84 -25.46 25.86 0 0.1 23.02 -0.1 43.3 0 0.11 0.1 0 19.83 -0.11 0.11 -96.13 0 -0.11 -0.11 0 -19.23 34.5 -35.03 22.21 -22.65 16.43 -16.72c1.48,-2.82 2.25,-5.92 2.25,-9.31l0 -0.6c0,-5.33 -1.67,-10.48 -5.03,-15.52 -0.91,-1.31 -2.17,-2.75 -3.82,-4.34 -1.93,-1.66 -3.69,-2.86 -5.25,-3.6 -3.54,-1.87 -7.93,-2.82 -13.04,-2.82l-0.92 0c-13.25,0 -21.83,5.75 -25.8,17.18 -1.25,3.98 -1.86,7.23 -1.86,9.7l-21.58 0 0 -0.42c0,-4.41 1.04,-9.67 3.01,-15.81 1.42,-3.84 2.98,-7.09 4.69,-9.7 4.99,-8.01 12.08,-13.79 21.23,-17.36 6.26,-2.43 13.19,-3.63 20.78,-3.63z"/>
     <path id="_9" class="fil10" d="M9466.39 4380.36c0,5.36 2.28,10.19 6.93,14.46 4.88,4.13 10.6,6.21 17.07,6.21 6.56,0 12.32,-2.15 17.31,-6.42 4.46,-4.2 6.71,-9 6.71,-14.36 0,-5.5 -2.32,-10.33 -6.94,-14.46 -2.59,-2.22 -5.33,-3.81 -8.15,-4.76 -2.9,-0.92 -5.76,-1.34 -8.58,-1.34l-0.68 0c-6.11,0 -11.63,1.94 -16.55,5.89 -4.77,4.27 -7.12,9.2 -7.12,14.78zm-8.85 67.87c0,7.34 3.21,13.76 9.6,19.34 2.56,1.94 4.66,3.28 6.29,4.05 5.19,2.68 10.87,4.03 16.96,4.03 8.7,0 16.44,-2.65 23.22,-7.98 2.7,-2.47 4.27,-4.16 4.69,-5.04 3.27,-4.55 4.92,-9.17 4.92,-13.87l0 -1.02c0,-5.26 -2.02,-10.34 -6.03,-15.31 -2.17,-2.33 -4.12,-4.06 -5.9,-5.15 -6.33,-4.2 -13.31,-6.32 -20.9,-6.32 -8.34,0 -15.77,2.44 -22.33,7.34 -1.79,1.45 -3.27,2.82 -4.46,4.13 -4.04,4.9 -6.06,10.16 -6.06,15.8zm32.85 -108.62c10.95,0 20.86,3.25 29.69,9.74 2.98,2.4 5.08,4.37 6.26,5.89 4.23,4.87 7.16,10.37 8.73,16.44 0.65,2.89 0.99,5.54 0.99,7.94l0 1.23c0,6.99 -2.21,13.8 -6.6,20.46 -1.25,1.8 -2.82,3.67 -4.69,5.61 -0.38,0.46 -1.33,1.41 -2.89,2.79 1.87,1.09 4.08,2.72 6.71,4.83 3.2,2.86 4.99,4.62 5.33,5.4 1.87,2.05 3.55,4.38 5.04,6.92 3.96,6.8 5.94,13.97 5.94,21.37 0,10.9 -4.04,20.82 -12.08,29.78 -2.1,2.22 -4.08,4.06 -6.03,5.57 -2.4,1.73 -4.42,3.07 -6.13,4.06 -9.3,5.29 -19.32,7.94 -30.04,7.94l-0.45 0c-11.78,0 -22.6,-3.18 -32.51,-9.49 -2.14,-1.38 -4.42,-3.18 -6.79,-5.4 -2.4,-2.26 -4.19,-4.13 -5.37,-5.57 -2.21,-2.9 -3.85,-5.54 -4.92,-7.94 -3.05,-6.07 -4.57,-12.1 -4.57,-18.1l0 -1.55c0,-7.09 2.09,-14.22 6.25,-21.38 1.56,-2.58 3.73,-5.36 6.47,-8.4 2.75,-2.61 4.66,-4.3 5.69,-5.04 1.79,-1.31 3.27,-2.33 4.49,-3 -2.62,-2.36 -4.42,-4.16 -5.37,-5.5 -5.86,-7.31 -8.8,-15.24 -8.8,-23.85 0,-9.95 3.69,-18.84 11.17,-26.78 2.89,-2.68 4.79,-4.3 5.67,-4.87 2.52,-1.8 4.81,-3.14 6.83,-4.02 6.97,-3.38 14.32,-5.08 21.98,-5.08z"/>
     <path id="_10" class="fil10" d="M9666.25 4342.82l0.12 0.11 0 19.75 -0.12 0.11 -47.45 0 -7.39 25.19 0.12 0c2.97,-0.32 5.74,-0.5 8.38,-0.5l1.78 0c9,0 17.96,1.94 26.92,5.9 3.28,1.44 6.7,3.42 10.37,5.89 1.25,0.88 2.77,2.11 4.57,3.7 3.27,2.97 5.33,5.05 6.13,6.21 2.02,2.33 3.59,4.45 4.69,6.32 5.07,8.32 7.62,17.11 7.62,26.35 0,11.64 -4,22.4 -11.96,32.24 -1.19,1.52 -3.24,3.6 -6.14,6.32 -2.97,2.54 -5.76,4.58 -8.38,6.17 -10.72,6.35 -22.22,9.53 -34.5,9.53l-0.57 0c-11.9,0 -23.1,-3.04 -33.58,-9.11 -2.4,-1.37 -5.07,-3.28 -8.04,-5.68 -2.98,-2.61 -4.88,-4.44 -5.72,-5.46 -2.75,-3.25 -4.72,-5.89 -5.9,-7.98 -1.42,-2.32 -2.14,-3.59 -2.14,-3.81 12.15,-5.32 18.68,-8.15 19.55,-8.46 4.31,8.32 11.4,14.32 21.23,17.95 4.92,1.73 9.88,2.61 14.95,2.61 9.9,0 18.74,-2.96 26.59,-8.89 2.22,-1.94 3.86,-3.49 4.89,-4.65 5.37,-6.35 8.04,-13.2 8.04,-20.57l0 -0.53c0,-7.72 -2.93,-14.85 -8.81,-21.38 -2.1,-2.15 -3.69,-3.6 -4.8,-4.34 -7.66,-5.61 -16.35,-8.39 -26.03,-8.39 -7.44,0 -14.56,1.83 -21.31,5.5l-20.43 10.23 13.95 -48.08c5.41,-18.67 8.16,-28.12 8.16,-28.3l1.22 -3.95 63.99 0z"/>
     <path id="_11" class="fil10" d="M9757.92 4340.14l0.12 0c11.08,0 21.08,3.28 30.03,9.81 2.97,2.36 5.37,4.66 7.24,6.95 1.72,2.04 3.12,4.13 4.27,6.17 3.42,6.07 5.11,12.24 5.11,18.52l0 1.13c0,6.49 -1.84,12.91 -5.57,19.33 -1.11,1.94 -2.59,3.96 -4.46,6.11 -1.22,1.37 -3.2,3.28 -6.03,5.68 1.27,0.74 3.32,2.43 6.26,5.04 3.12,3.18 5.29,5.82 6.56,7.87 4.76,7.3 7.16,14.96 7.16,22.97l0 0.81c0,8.46 -2.7,16.61 -8.16,24.37 -1.48,2.02 -3.24,4.06 -5.26,6.11 -2.74,2.54 -4.84,4.23 -6.24,5.08 -2.75,1.9 -5.46,3.49 -8.16,4.76 -2.06,1.02 -4.88,2.05 -8.46,3.07 -5.3,1.45 -10.1,2.19 -14.41,2.19l-3.12 0c-5.38,0 -11.37,-1.1 -17.99,-3.32 -3.59,-1.3 -7.06,-3 -10.49,-5.04 -2.17,-1.38 -4.5,-3.14 -7.05,-5.3 -2.44,-2.25 -4.34,-4.3 -5.68,-6.1 -2.1,-2.82 -3.65,-5.22 -4.69,-7.23 -3.05,-6.18 -4.57,-12.28 -4.57,-18.28l0 -0.74 0.12 -0.1 21.31 0 0.1 0.1c0,6 2.33,11.47 6.94,16.44 1.79,1.73 3.13,2.9 4.01,3.53 2.47,1.66 4.61,2.82 6.47,3.49 4.31,1.73 8.7,2.61 13.07,2.61 8.55,0 16.06,-2.75 22.45,-8.18 5.49,-5.29 8.28,-11.25 8.28,-17.89 0,-5.85 -2.22,-11.21 -6.59,-16.12 -6.41,-6.67 -14.61,-10.02 -24.59,-10.02l-11.05 0 0 0 0 -19.86 0 -0.07 12.39 0 2.02 0.07c1.4,0 3.57,-0.32 6.47,-1.02 1.79,-0.53 3.44,-1.2 4.92,-1.94 1.33,-0.64 3.09,-1.8 5.26,-3.53 4.76,-4.48 7.13,-9.67 7.13,-15.52 0,-5.89 -2.48,-11.15 -7.48,-15.7 -5.14,-4.13 -10.98,-6.21 -17.52,-6.21 -7.18,0 -13.39,2.43 -18.64,7.27 -1.87,1.83 -3.28,3.67 -4.28,5.46 -1.48,2.9 -2.2,6.21 -2.2,10.02l-0.12 0.11 -21.46 0 -0.12 -0.11 0 -0.84c0,-9.78 3.59,-18.67 10.72,-26.64 2.63,-2.71 4.54,-4.41 5.72,-5.18 2.67,-2.05 5.41,-3.74 8.15,-5.05 6.98,-3.39 14.37,-5.08 22.11,-5.08z"/>
     <path id="_12" class="fil10" d="M9827.94 4342.72l96.57 0 0.12 0.1 0 17.08c-0.15,0.31 -2.09,3.56 -5.79,9.7l-29.73 49.6 -29.12 48.58 -13.76 22.86 -0.11 0 -18.75 -9.74 24.35 -40.5 22.79 -38.13 23.78 -39.48 -70.35 0 -0.12 -0.11 0 -19.86 0.12 -0.1z"/>
     <path class="fil10" d="M7030.03 4741.4l2.78 0c7.35,0 15.02,1.98 22.91,6l0 0.11c-3.12,13.09 -4.84,19.93 -5.14,20.56 -7.18,-4.33 -13.5,-6.52 -18.99,-6.52l-1.79 0c-7.16,0 -13.45,2.43 -18.86,7.34 -4.12,4.62 -6.14,13.37 -6.14,26.24l0 45.48 -0.24 0.31 -20.88 0 -0.35 -0.31 0 -97.05 0.35 -0.22 20.88 0 0.24 0.22 0 7.44c8.19,-6.39 16.57,-9.6 25.23,-9.6z"/>
     <path id="_1_13" class="fil10" d="M7091.21 4792.13c0,7.52 2.62,14.33 7.92,20.47 2.33,2.43 4.11,4.02 5.38,4.76 5.86,4.13 12.27,6.21 19.21,6.21 8.46,0 16.01,-2.97 22.52,-8.89 2.63,-2.54 4.47,-4.77 5.49,-6.64 3.05,-5.08 4.57,-10.37 4.57,-15.8l0 -0.32c0,-7.9 -2.94,-15.03 -8.8,-21.38 -2.55,-2.47 -4.27,-3.88 -5.15,-4.23 -1.25,-0.99 -2.47,-1.73 -3.58,-2.29 -4.84,-2.4 -9.87,-3.6 -15.05,-3.6 -7.89,0 -15.14,2.72 -21.7,8.15 -2.28,2.15 -3.72,3.74 -4.34,4.76 -4.3,5.57 -6.47,11.85 -6.47,18.8zm32.51 -51.68c12.12,0 23.2,3.64 33.27,10.87 1.41,0.95 3.43,2.68 6.02,5.15 5.14,5.32 8.76,10.76 10.93,16.33 2.6,6.21 3.94,12.67 3.94,19.33 0,8.68 -2.29,17.04 -6.83,25.02 -1.56,2.61 -3.7,5.5 -6.36,8.57 -2.9,3.1 -5.27,5.29 -7.05,6.53 -1.99,1.51 -3.89,2.78 -5.68,3.81 -8.88,4.97 -18.11,7.44 -27.71,7.44l-1 0c-10.13,0 -19.85,-2.75 -29.15,-8.26 -1.79,-1.23 -3.39,-2.39 -4.8,-3.52 -2.9,-2.26 -4.99,-4.2 -6.25,-5.79 -1.56,-1.66 -3.01,-3.42 -4.35,-5.36 -1.48,-2.22 -2.75,-4.34 -3.81,-6.42 -3.46,-7.16 -5.22,-14.29 -5.22,-21.38l0 -1.55c0,-7.73 2.06,-15.49 6.25,-23.25 1.18,-2.15 2.59,-4.31 4.24,-6.53 1.25,-1.66 3.15,-3.74 5.71,-6.31 3.62,-3.07 6.25,-5.08 7.81,-5.96 9.15,-5.83 19.17,-8.72 30.04,-8.72z"/>
     <path id="_2_14" class="fil10" d="M7204.97 4689.72l21.58 0 0 58.7 0.12 0c3.77,-1.94 8.76,-3.7 14.94,-5.36 3.2,-0.7 7.19,-1.06 11.96,-1.06l0.99 0c19.21,0 32.98,6.74 41.32,20.18 2.89,5.29 4.35,11.54 4.35,18.7l0 59.83 -0.24 0.32 -20.96 0 -0.22 -0.32 0 -60.04c0,-8.47 -3.85,-14.04 -11.52,-16.76 -3.2,-1.3 -7.27,-1.94 -12.26,-1.94l-1.8 0c-9.07,0 -15.51,1.31 -19.32,3.92 -4.92,2.75 -7.36,7.86 -7.36,15.31l0 59.83 -21.58 0 0 -151.31z"/>
     <path id="_3_15" class="fil10" d="M7356.53 4742l0 98.92 -0.12 0.11 -21.42 0 -0.11 -0.11 0 -98.92 21.65 0zm-11.29 -52.28l0.92 0c3.24,0 6.36,1.17 9.26,3.49 2.89,2.79 4.34,5.86 4.34,9.21l0 0.64c0,3.1 -1.25,5.99 -3.8,8.67 -2.99,2.69 -6.29,4.03 -9.92,4.03l-0.68 0c-3.44,0 -6.56,-1.2 -9.38,-3.6 -1.57,-1.52 -2.59,-2.86 -3.12,-4.06 -0.84,-1.69 -1.22,-3.35 -1.22,-4.94l0 -0.84c0,-3.18 1.37,-6.11 4.11,-8.89l1.68 -1.35c2.59,-1.58 5.22,-2.36 7.81,-2.36z"/>
     <path id="_4_16" class="fil10" d="M7440.29 4742l1 0c19.2,0 32.97,6.74 41.31,20.18 2.89,5.29 4.35,11.54 4.35,18.7l0 59.83 -0.23 0.32 -20.96 0 -0.23 -0.32 0 -60.04c0,-8.47 -3.85,-14.04 -11.52,-16.76 -3.2,-1.3 -7.27,-1.94 -12.26,-1.94l-1.79 0c-9.08,0 -15.52,1.31 -19.33,3.92 -4.92,2.75 -7.36,7.86 -7.36,15.31l0 59.51 -0.34 0.32 -20.89 0 -0.34 -0.32 0 -97.86 0.34 -0.32 20.89 0 0.34 0.32 0 5.57 0.12 0c3.77,-1.94 8.76,-3.7 14.94,-5.36 3.2,-0.7 7.2,-1.06 11.96,-1.06z"/>
     <path id="_5_17" class="fil10" d="M7523.16 4689.72l21.42 0 0.12 0.11 0 52.07 27.7 0 0.12 0.1 0 19.87 -0.12 0.1 -27.7 0 0 49.92c0,3.85 1.4,6.42 4.22,7.76 1.95,0.95 3.97,1.45 6.06,1.45 2.9,0 7.02,-0.92 12.4,-2.72l0.87 -0.39 8.04 18.7c-1.79,0.67 -4.69,1.59 -8.69,2.68 -4.76,1.1 -8.95,1.66 -12.5,1.66l-0.22 0c-7.1,0 -13.73,-2.01 -19.9,-6 -1.03,-0.67 -2.4,-1.8 -4.12,-3.31l-1.9 -2.26c-1.19,-1.45 -2.14,-2.86 -2.79,-4.23 -2.02,-4.2 -3.01,-8.44 -3.01,-12.63l0 -50.63 -15.85 0 -0.12 -0.1 0 -19.87 0.12 -0.1 15.85 0 0 -52.18z"/>
     <path id="_6_18" class="fil10" d="M7600.64 4689.72l21.58 0 0 58.7 0.12 0c3.77,-1.94 8.76,-3.7 14.94,-5.36 3.2,-0.7 7.19,-1.06 11.96,-1.06l0.99 0c19.21,0 32.97,6.74 41.32,20.18 2.89,5.29 4.35,11.54 4.35,18.7l0 59.83 -0.24 0.32 -20.96 0 -0.22 -0.32 0 -60.04c0,-8.47 -3.85,-14.04 -11.52,-16.76 -3.2,-1.3 -7.27,-1.94 -12.26,-1.94l-1.8 0c-9.07,0 -15.51,1.31 -19.33,3.92 -4.91,2.75 -7.35,7.86 -7.35,15.31l0 59.83 -21.58 0 0 -151.31z"/>
     <path id="_7_19" class="fil10" d="M7776.2 4741.4l2.79 0c7.35,0 15.02,1.98 22.91,6l0 0.11c-3.13,13.09 -4.84,19.93 -5.15,20.56 -7.17,-4.33 -13.49,-6.52 -18.98,-6.52l-1.79 0c-7.17,0 -13.45,2.43 -18.87,7.34 -4.11,4.62 -6.13,13.37 -6.13,26.24l0 45.48 -0.24 0.31 -20.88 0 -0.35 -0.31 0 -97.05 0.35 -0.22 20.88 0 0.24 0.22 0 7.44c8.19,-6.39 16.57,-9.6 25.22,-9.6z"/>
     <path id="_8_20" class="fil10" d="M7837.39 4779.22l54.16 0 0 -0.1c-1.27,-3.53 -4.16,-7.52 -8.7,-12 -5.67,-4.48 -11.85,-6.7 -18.56,-6.7 -10.18,0 -18.56,4.97 -25.12,14.99l-1.78 3.81zm25.45 -38.77l3.24 0c10.86,0 21.35,4.06 31.36,12.1 4.93,4.48 8.32,8.33 10.18,11.57 5.41,8.89 8.16,18.21 8.16,27.91l0 3.1c0,1.94 -0.15,2.9 -0.46,2.9l-79.95 0c1.7,7.37 4.57,12.87 8.49,16.54 6.03,6 12.89,9 20.55,9 9.68,0 17.79,-4.52 24.35,-13.55 1.26,-2.26 2.02,-3.46 2.21,-3.53 12.81,5.4 19.29,8.15 19.44,8.29 -1.03,2.4 -3.39,6.04 -7.01,10.83 -10.98,11.93 -23.87,17.89 -38.77,17.89l-0.45 0c-15.33,0 -28.51,-6.28 -39.53,-18.91 -7.59,-9.84 -11.4,-20.64 -11.4,-32.35l0 -0.42c0,-16.13 6.68,-29.74 20.02,-40.93 9.83,-6.95 19.66,-10.44 29.57,-10.44z"/>
     <path id="_9_21" class="fil10" d="M7954.5 4742c0.08,0 0.99,2.44 2.71,7.24l17.64 49.21 3.02 8.25 15.74 -47.02 5.91 -17.68 19.09 0c0.08,0 0.27,0.6 0.57,1.77l15.05 44.77 6.03 18.16c0.15,0 1.1,-2.39 2.82,-7.23l17.31 -48.68 3.23 -8.79 23.79 0 0 0.11 -17.76 48.15 -16.54 44.56 -2.22 6.21 -21.46 0c-0.15,0 -0.49,-0.95 -0.99,-2.89 -3.2,-9.18 -6.21,-18.07 -9.06,-26.67l-10.15 -30.38 -0.11 0 -15.18 44.95 -5.02 14.99 -21.57 0c-0.08,0 -0.73,-1.83 -1.98,-5.47l-15.89 -42.79 -16.97 -45.69 -1.79 -5.08 23.78 0z"/>
     <path id="_10_22" class="fil10" d="M8158.07 4740.45c12.42,0 23.09,4.38 31.94,13.13l0 -11.36 0.34 -0.22 21.12 0 0.19 0.22 0 98.6 -0.19 0.21 -21.12 0 -0.34 -0.21 0 -10.02c-8.35,8.47 -19.06,12.7 -32.17,12.7l-0.11 0c-16.28,0 -30.15,-6.1 -41.51,-18.27 -8.5,-9.88 -12.72,-20.92 -12.72,-33.2l0 -0.11c0,-15.13 6.32,-28.22 18.97,-39.26 10.49,-8.12 22.37,-12.21 35.6,-12.21zm-33.04 51.47c0,10.9 5.06,19.83 15.17,26.78 5.67,3.17 11,4.76 16.08,4.76l2.48 0c7.13,0 14.06,-2.68 20.77,-8.08 6.97,-6.59 10.48,-14.39 10.48,-23.35l0 -0.11c0,-11 -5.08,-19.89 -15.17,-26.63 -5.6,-3.18 -11.09,-4.77 -16.54,-4.77l-1.79 0c-8.92,0 -17.01,3.81 -24.24,11.47 -4.84,6.35 -7.24,12.98 -7.24,19.93z"/>
     <path id="_11_23" class="fil10" d="M8289.07 4693.85c11.09,0 20.62,2.68 28.59,8.08 1.48,0.88 3.62,2.61 6.36,5.15 3.13,3.1 5.45,5.92 7.01,8.46 4.84,7.94 7.29,16.23 7.29,24.91 0,8.01 -2.14,15.21 -6.37,21.63l-35.29 35.84 -25.47 25.86 0 0.1 23.03 -0.1 43.3 0 0.11 0.1 0 19.83 -0.11 0.11 -96.14 0 -0.1 -0.11 0 -19.23 34.49 -35.03 22.22 -22.65 16.43 -16.72c1.48,-2.82 2.25,-5.92 2.25,-9.31l0 -0.6c0,-5.33 -1.68,-10.48 -5.04,-15.52 -0.91,-1.31 -2.17,-2.75 -3.81,-4.34 -1.94,-1.66 -3.7,-2.86 -5.25,-3.6 -3.55,-1.87 -7.93,-2.82 -13.04,-2.82l-0.92 0c-13.26,0 -21.84,5.75 -25.8,17.18 -1.25,3.98 -1.87,7.23 -1.87,9.7l-21.58 0 0 -0.42c0,-4.41 1.04,-9.67 3.02,-15.81 1.41,-3.84 2.97,-7.09 4.69,-9.7 4.99,-8.01 12.08,-13.79 21.23,-17.36 6.25,-2.43 13.19,-3.63 20.77,-3.63z"/>
     <path id="_12_24" class="fil10" d="M8430.55 4737.45l-19.55 30.62c-12.51,19.48 -18.98,29.6 -19.44,30.38 -0.19,0.14 -0.73,0.92 -1.56,2.36l34.19 0 6.48 -0.1 0 -63.26 -0.12 0zm0.23 -39.37l21.31 0 0.11 0.11 0 102.52 13.19 0 0.11 0.1 0 19.76 -0.11 0.1 -13.07 0 0 21.91 -0.12 0.11 -21.42 0 -0.11 -0.11 0 -21.8 -78.63 0 0 -0.11 27.14 -42.26 26.49 -41.24 22.98 -35.88 2.13 -3.21z"/>
     <path id="_13" class="fil10" d="M8516.54 4735.62c0,5.36 2.28,10.19 6.93,14.46 4.88,4.13 10.6,6.21 17.07,6.21 6.56,0 12.32,-2.15 17.31,-6.42 4.46,-4.2 6.71,-9 6.71,-14.36 0,-5.5 -2.32,-10.33 -6.94,-14.46 -2.59,-2.22 -5.33,-3.81 -8.15,-4.76 -2.9,-0.92 -5.76,-1.34 -8.58,-1.34l-0.68 0c-6.11,0 -11.63,1.94 -16.55,5.89 -4.77,4.27 -7.12,9.2 -7.12,14.78zm-8.85 67.87c0,7.34 3.21,13.76 9.6,19.34 2.56,1.94 4.66,3.28 6.29,4.05 5.19,2.68 10.87,4.03 16.96,4.03 8.7,0 16.44,-2.65 23.22,-7.98 2.7,-2.47 4.27,-4.16 4.69,-5.04 3.27,-4.55 4.91,-9.17 4.91,-13.87l0 -1.02c0,-5.26 -2.02,-10.34 -6.02,-15.31 -2.18,-2.33 -4.12,-4.06 -5.9,-5.15 -6.33,-4.2 -13.31,-6.32 -20.9,-6.32 -8.34,0 -15.77,2.44 -22.33,7.34 -1.79,1.45 -3.27,2.82 -4.46,4.13 -4.04,4.9 -6.06,10.16 -6.06,15.8zm32.85 -108.62c10.95,0 20.85,3.25 29.69,9.74 2.98,2.4 5.08,4.37 6.26,5.89 4.23,4.87 7.16,10.37 8.73,16.44 0.64,2.89 0.99,5.54 0.99,7.94l0 1.23c0,6.99 -2.21,13.8 -6.6,20.46 -1.25,1.8 -2.82,3.67 -4.69,5.61 -0.38,0.46 -1.33,1.41 -2.9,2.79 1.87,1.09 4.09,2.72 6.71,4.83 3.21,2.86 5,4.62 5.34,5.4 1.87,2.05 3.54,4.38 5.04,6.92 3.96,6.8 5.94,13.97 5.94,21.37 0,10.9 -4.04,20.82 -12.08,29.78 -2.1,2.22 -4.08,4.06 -6.03,5.57 -2.4,1.73 -4.42,3.07 -6.14,4.06 -9.29,5.29 -19.31,7.94 -30.03,7.94l-0.45 0c-11.78,0 -22.61,-3.18 -32.51,-9.49 -2.14,-1.38 -4.42,-3.18 -6.79,-5.4 -2.4,-2.26 -4.19,-4.13 -5.37,-5.57 -2.21,-2.9 -3.85,-5.54 -4.92,-7.94 -3.05,-6.07 -4.57,-12.1 -4.57,-18.1l0 -1.55c0,-7.09 2.09,-14.22 6.25,-21.38 1.56,-2.58 3.73,-5.36 6.47,-8.4 2.75,-2.61 4.66,-4.3 5.69,-5.04 1.79,-1.31 3.27,-2.33 4.49,-3 -2.63,-2.36 -4.42,-4.16 -5.37,-5.5 -5.87,-7.31 -8.8,-15.24 -8.8,-23.85 0,-9.95 3.69,-18.84 11.17,-26.78 2.89,-2.68 4.79,-4.3 5.67,-4.87 2.52,-1.8 4.81,-3.14 6.83,-4.02 6.97,-3.38 14.32,-5.08 21.98,-5.08z"/>
     <path id="_14" class="fil10" d="M8704.32 4788.92l0 0.64c0,4.97 1.34,9.56 4.04,13.86 0.57,1.1 1.82,2.54 3.66,4.34 3.35,2.97 7.16,4.45 11.4,4.45l0.11 0c5.45,0 10.55,-2.51 15.39,-7.45 5.16,-5.85 7.75,-12.66 7.75,-20.35 0,-6.07 -1.84,-11.47 -5.49,-16.16 -3.89,-4.41 -8.43,-6.6 -13.61,-6.6l-0.11 0c-5,0 -9.8,2.16 -14.41,6.42 -3.05,3.14 -5.34,6.67 -6.82,10.52 -1.26,3.6 -1.91,7.05 -1.91,10.33zm24.35 -99.3l2.44 0c13.87,0 27.52,2.22 41.01,6.63 18.61,6.45 33.51,16.61 44.75,30.48 2.7,3.35 5.04,6.77 7.06,10.23 7.81,13.51 11.73,28.29 11.73,44.34 0,7.02 -1.33,15.1 -3.92,24.28 -1.34,3.73 -2.82,7.05 -4.46,10.01 -1.72,3.04 -3.93,6.18 -6.59,9.42 -2.67,2.9 -5.08,5.05 -7.18,6.49 -8.23,5.93 -16.8,8.89 -25.65,8.89 -4.49,0 -9.14,-0.67 -13.99,-2.04 -7.58,-2.36 -13.52,-6.32 -17.83,-11.89 -1.48,-2.01 -2.59,-3.77 -3.23,-5.29l-0.35 -0.6c-2.32,2.04 -4.31,3.6 -6.03,4.66 -7.31,4.62 -14.97,6.91 -23.01,6.91 -8.35,0 -16.09,-2.43 -23.22,-7.34 -2.97,-2.26 -5.41,-4.55 -7.28,-6.81 -1.83,-2.29 -3.24,-4.23 -4.12,-5.89 -3.99,-7.12 -6.01,-14.71 -6.01,-22.86 0,-10.19 3.01,-19.68 9.03,-28.5 4.16,-5.68 9.15,-10.16 14.97,-13.55 6.68,-3.74 13.61,-5.57 20.78,-5.57 8.68,0 16.69,2.64 24.01,7.93 2.44,2.01 4.42,3.88 5.9,5.58 1.04,1.2 2.02,2.47 3.02,3.84l0.12 0c0.8,-2.08 1.75,-4.3 2.77,-6.74l0.12 0 19.97 7.13 0 0.11c-2.51,5.92 -4.57,11.07 -6.14,15.41 -4.37,12 -6.59,21.73 -6.59,29.25 0,6.42 1.79,10.79 5.38,13.12 1.48,1.17 3.92,2.08 7.24,2.68 1.79,0.29 3.24,0.43 4.39,0.43l0.1 0c4.69,0 9.5,-2.08 14.42,-6.21 2.35,-2.47 4.19,-4.87 5.44,-7.23 1.49,-2.54 2.59,-4.98 3.36,-7.34 0.76,-2.26 1.37,-5.01 1.9,-8.26 0.73,-3.45 1.1,-6.74 1.1,-9.84l0 -0.39c0,-16.47 -5.09,-30.9 -15.27,-43.32 -4.46,-5.15 -9.08,-9.31 -13.77,-12.49 -3.39,-2.36 -6.66,-4.27 -9.79,-5.78 -13.41,-6.64 -28.51,-9.95 -45.36,-9.95l-0.11 0c-17.04,0 -32.85,4.51 -47.45,13.54 -2.74,1.73 -5.8,3.96 -9.15,6.64 -3.2,2.82 -5.53,4.97 -6.93,6.49 -3.59,4.02 -6.14,7.19 -7.71,9.63 -8.65,12.73 -12.95,26.56 -12.95,41.45 0,14.99 4.42,29.07 13.3,42.16 1.64,2.4 3.77,5.11 6.48,8.15 1.33,1.51 3.69,3.84 7.12,6.95 4.46,3.77 8.12,6.45 10.94,8.04 6.17,3.85 12.93,6.88 20.24,9.1 8.46,2.54 17.04,3.81 25.65,3.81l0.92 0c15.71,0 30.64,-4.02 44.78,-12.06l11.59 16.83c-3.69,2.15 -7.43,4.02 -11.17,5.68 -3.2,1.51 -7.47,3.14 -12.85,4.86 -10.85,3.18 -21.26,4.77 -31.25,4.77l-3.12 0c-10.71,0 -21.91,-1.87 -33.61,-5.61 -6.68,-2.26 -12.77,-4.87 -18.19,-7.83 -4.38,-2.44 -8.77,-5.26 -13.07,-8.47 -1.79,-1.2 -5.07,-3.95 -9.83,-8.29 -5.16,-5.22 -8.93,-9.6 -11.4,-13.13 -2.59,-3.56 -4.92,-7.23 -6.9,-10.93 -2.1,-3.88 -4.12,-8.43 -6.02,-13.65 -3.44,-10.13 -5.14,-19.94 -5.14,-29.36l0 -2.18c0,-11.43 2.39,-23 7.23,-34.72 1.87,-4.34 4.08,-8.53 6.6,-12.59 2.17,-3.6 5.11,-7.62 8.84,-12.1 1.75,-2.15 4.65,-5.12 8.57,-8.89l1.57 -1.34c4.69,-4.02 8.31,-6.81 10.82,-8.4 4.19,-2.75 8.19,-5.08 12.08,-7.02 4.39,-2.19 9.45,-4.23 15.17,-6.1 11.47,-3.57 22.72,-5.36 33.73,-5.36z"/>
     <path id="_15" class="fil10" d="M8885.97 4778.59c0,4.55 2.36,8.64 7.05,12.2 5,3.53 10.64,5.3 16.96,5.3l0.46 0c5.57,0 10.74,-1.42 15.51,-4.27 3.89,-2.4 6.52,-5.51 7.93,-9.28 0.46,-1.38 0.69,-2.68 0.69,-3.95 0,-4.59 -2.41,-8.72 -7.16,-12.28 -4.93,-3.46 -10.65,-5.19 -17.2,-5.19 -6.32,0 -11.96,1.7 -16.95,5.08 -4.84,3.57 -7.29,7.73 -7.29,12.39zm-3.66 72.56l0 0.32c0,3.11 2.4,6.07 7.24,8.89 6.56,3.5 14.61,5.26 24.12,5.26l1.23 0c8.42,0 15.86,-1.62 22.34,-4.83 1.55,-0.78 3.2,-1.87 4.91,-3.32 2.75,-2.54 4.12,-4.94 4.12,-7.13 0,-3.1 -2.44,-5.71 -7.36,-7.86 -1.64,-0.71 -3.77,-1.31 -6.36,-1.87 -4.39,-0.74 -8.23,-1.13 -11.52,-1.13l-12.5 0.1c-5.64,0 -10.86,-0.31 -15.62,-0.91 -1.42,0.6 -2.9,1.44 -4.46,2.47 -4.12,3.03 -6.14,6.38 -6.14,10.01zm71.89 -110.59l4.27 0 0.11 0.1 0 19.86 -0.11 0.11 -4.92 0c-0.99,0 -1.87,0.18 -2.67,0.49 3.47,5.47 5.22,11.29 5.22,17.47 0,7.37 -2.47,14.21 -7.46,20.46 -0.85,1.2 -2.49,2.96 -5.04,5.29 -4.69,3.85 -9.5,6.63 -14.41,8.36 -6.09,2.22 -12.43,3.32 -18.98,3.32 -6.86,0 -13.49,-1.24 -19.97,-3.74 -1.49,1.13 -2.25,2.04 -2.25,2.82l0 0.11c0,1.69 2.67,2.96 8.04,3.7 3.66,0.49 8.35,0.74 14.07,0.74l9.48 -0.1c14.52,0 26.07,2.64 34.62,7.93 1.37,0.78 3.12,2.19 5.37,4.24 2.02,2.01 3.54,3.88 4.57,5.61 2.56,4.26 3.81,8.6 3.81,13.01 0,6.81 -2.85,13.3 -8.61,19.41 -2.51,2.5 -4.42,4.12 -5.68,4.86 -2.7,1.8 -5.07,3.22 -7.16,4.24 -1.8,0.92 -3.93,1.8 -6.49,2.68 -2.2,0.78 -4.91,1.52 -8.03,2.29 -5.72,1.17 -11.1,1.77 -16.05,1.77l-3.24 0c-8.65,0 -17.08,-1.34 -25.27,-4.06 -3.39,-1.24 -6.41,-2.58 -9.03,-4.02 -1.95,-1.03 -4.04,-2.44 -6.36,-4.24 -2.67,-2.39 -4.24,-3.95 -4.69,-4.65 -1.57,-1.91 -2.67,-3.57 -3.36,-4.94 -2.13,-4.02 -3.24,-7.9 -3.24,-11.68l0 -1.66c0,-2.43 0.61,-5.29 1.79,-8.57 0.92,-2.15 2.06,-4.23 3.47,-6.21 0.87,-1.23 2.36,-2.82 4.34,-4.76l2.02 -1.76c-2.17,-3.04 -3.24,-6.28 -3.24,-9.71l0 -0.74c0,-4.55 2.06,-9.8 6.14,-15.8 -2.82,-2.89 -4.65,-5.12 -5.45,-6.63 -0.84,-1.03 -1.82,-2.86 -3.01,-5.47 -1.6,-4.06 -2.36,-7.87 -2.36,-11.47l0 -1.34c0,-6.21 2.13,-12.38 6.36,-18.52 1.03,-1.45 2.36,-2.96 4,-4.62 2.71,-2.51 4.57,-4.06 5.61,-4.66 2.59,-1.8 5.41,-3.35 8.49,-4.65 6.83,-2.83 13.77,-4.24 20.78,-4.24l1.22 0c8.38,0 16.46,1.98 24.2,5.89 1.72,-1.44 3.16,-2.47 4.38,-3.1 4.3,-2.26 9.23,-3.42 14.72,-3.42z"/>
     <path id="_16" class="fil10" d="M9046.58 4742l1 0c14.44,0 26.11,4.06 34.95,12.1 8.5,-8.04 20.16,-12.1 35.07,-12.1l3.46 0c19.64,0 33.58,6.88 41.74,20.57 2.7,5.4 4.04,10.69 4.04,15.95l0 62.19 -0.23 0.32 -21 0 -0.23 -0.32 0 -62.02c0,-7.44 -4.46,-12.56 -13.38,-15.38 -2.75,-0.92 -6.25,-1.34 -10.48,-1.34l-4.39 0c-11.58,0 -19.12,3.56 -22.56,10.73 -0.87,1.94 -1.33,4.12 -1.33,6.52l0 61.49 -0.23 0.32 -20.96 0 -0.23 -0.32 0 -59.72c0,-7.38 -2.59,-12.42 -7.7,-15.1 -3.97,-2.61 -9.34,-3.92 -16.08,-3.92l-1.79 0c-9.08,0 -15.52,1.31 -19.33,3.92 -4.92,2.75 -7.36,7.86 -7.36,15.31l0 59.51 -0.34 0.32 -20.89 0 -0.34 -0.32 0 -97.86 0.34 -0.32 20.89 0 0.34 0.32 0 5.57 0.12 0c3.77,-1.94 8.76,-3.7 14.94,-5.36 3.2,-0.7 7.2,-1.06 11.96,-1.06z"/>
     <path id="_17" class="fil10" d="M9248.25 4740.45c12.42,0 23.1,4.38 31.94,13.13l0 -11.36 0.34 -0.22 21.12 0 0.2 0.22 0 98.6 -0.2 0.21 -21.12 0 -0.34 -0.21 0 -10.02c-8.35,8.47 -19.05,12.7 -32.17,12.7l-0.11 0c-16.28,0 -30.15,-6.1 -41.51,-18.27 -8.5,-9.88 -12.72,-20.92 -12.72,-33.2l0 -0.11c0,-15.13 6.32,-28.22 18.97,-39.26 10.49,-8.12 22.37,-12.21 35.6,-12.21zm-33.04 51.47c0,10.9 5.07,19.83 15.17,26.78 5.67,3.17 11.01,4.76 16.08,4.76l2.48 0c7.13,0 14.07,-2.68 20.77,-8.08 6.97,-6.59 10.48,-14.39 10.48,-23.35l0 -0.11c0,-11 -5.07,-19.89 -15.16,-26.63 -5.61,-3.18 -11.1,-4.77 -16.54,-4.77l-1.8 0c-8.92,0 -17,3.81 -24.24,11.47 -4.84,6.35 -7.24,12.98 -7.24,19.93z"/>
     <path id="_18" class="fil10" d="M9358.37 4742l0 98.92 -0.12 0.11 -21.42 0 -0.11 -0.11 0 -98.92 21.65 0zm-11.29 -52.28l0.92 0c3.24,0 6.36,1.17 9.26,3.49 2.89,2.79 4.34,5.86 4.34,9.21l0 0.64c0,3.1 -1.25,5.99 -3.8,8.67 -2.98,2.69 -6.29,4.03 -9.92,4.03l-0.68 0c-3.44,0 -6.56,-1.2 -9.38,-3.6 -1.56,-1.52 -2.59,-2.86 -3.12,-4.06 -0.84,-1.69 -1.22,-3.35 -1.22,-4.94l0 -0.84c0,-3.18 1.37,-6.11 4.12,-8.89l1.67 -1.35c2.59,-1.58 5.22,-2.36 7.81,-2.36z"/>
     <polygon id="_19" class="fil10" points="9393.66,4689.72 9415,4689.72 9415.11,4689.83 9415.11,4840.92 9415,4841.03 9393.66,4841.03 9393.54,4840.92 9393.54,4689.83 "/>
     <path id="_20" class="fil10" d="M9463.14 4814.99c4.46,0 8.2,1.77 11.24,5.37 1.8,2.4 2.7,4.83 2.7,7.23l0 0.85c0,3.28 -1.44,6.31 -4.37,9.06 -2.14,1.73 -4.27,2.79 -6.37,3.21 -1.11,0.21 -1.94,0.32 -2.56,0.32l-1.55 0c-2.37,0 -4.89,-0.78 -7.48,-2.36 -2.55,-1.73 -4.31,-4.03 -5.26,-6.85 -0.38,-1.23 -0.57,-2.36 -0.57,-3.38l0 -0.85c0,-3.25 1.45,-6.25 4.27,-9 2.82,-2.4 6.13,-3.6 9.95,-3.6z"/>
     <path id="_21" class="fil10" d="M9558.05 4740.45l0.22 0c11.18,0 21.58,3.18 31.26,9.53 1.79,1.23 3.77,2.85 6.02,4.87 2.74,2.61 4.58,4.58 5.49,5.89 1.11,1.37 1.67,2.11 1.67,2.25l-17.87 10.98 -0.12 0c-0.83,-1.27 -2.28,-2.86 -4.34,-4.87 -6.56,-5.79 -14.02,-8.68 -22.33,-8.68 -7.98,0 -15.21,2.68 -21.7,8.04 -2.35,2.23 -3.8,3.81 -4.34,4.77 -4.3,5.64 -6.47,11.92 -6.47,18.8 0,7.44 2.58,14.25 7.69,20.35 1.64,1.8 3.36,3.39 5.14,4.77 5.96,4.27 12.55,6.42 19.79,6.42 6.52,0 12.66,-1.87 18.3,-5.58 1.25,-0.77 3,-2.18 5.26,-4.23 1.25,-1.41 2.32,-2.75 3.23,-4.06l0.12 0 17.95 10.97c-1.26,1.87 -2.98,3.92 -5.11,6.21 -2.55,2.54 -4.34,4.17 -5.37,4.84 -2.44,1.87 -4.58,3.31 -6.37,4.34 -8.84,4.97 -18.06,7.44 -27.59,7.44l-1 0c-10.21,0 -19.93,-2.79 -29.15,-8.36 -1.79,-1.17 -3.43,-2.29 -4.91,-3.42 -2.75,-2.33 -4.81,-4.27 -6.14,-5.79 -2.98,-3.35 -5.11,-6.21 -6.37,-8.47 -1.41,-2.18 -2.78,-5.11 -4.12,-8.78 -1.93,-5.57 -2.89,-10.87 -2.89,-15.8l0 -1.66c0,-7.73 2.02,-15.49 6.13,-23.25 1.27,-2.15 2.71,-4.34 4.36,-6.63 1.25,-1.59 3.15,-3.64 5.71,-6.21 2.97,-2.61 5.52,-4.59 7.69,-5.96 9.31,-5.83 19.33,-8.72 30.16,-8.72z"/>
     <path id="_22" class="fil10" d="M9642.01 4792.13c0,7.52 2.63,14.33 7.92,20.47 2.34,2.43 4.12,4.02 5.38,4.76 5.87,4.13 12.28,6.21 19.21,6.21 8.46,0 16.01,-2.97 22.53,-8.89 2.62,-2.54 4.46,-4.77 5.49,-6.64 3.04,-5.08 4.57,-10.37 4.57,-15.8l0 -0.32c0,-7.9 -2.94,-15.03 -8.81,-21.38 -2.55,-2.47 -4.26,-3.88 -5.14,-4.23 -1.25,-0.99 -2.47,-1.73 -3.59,-2.29 -4.84,-2.4 -9.86,-3.6 -15.05,-3.6 -7.88,0 -15.13,2.72 -21.69,8.15 -2.28,2.15 -3.73,3.74 -4.34,4.76 -4.3,5.57 -6.48,11.85 -6.48,18.8zm32.51 -51.68c12.13,0 23.21,3.64 33.28,10.87 1.4,0.95 3.42,2.68 6.02,5.15 5.14,5.32 8.76,10.76 10.93,16.33 2.59,6.21 3.93,12.67 3.93,19.33 0,8.68 -2.29,17.04 -6.82,25.02 -1.56,2.61 -3.7,5.5 -6.37,8.57 -2.89,3.1 -5.26,5.29 -7.04,6.53 -1.99,1.51 -3.89,2.78 -5.69,3.81 -8.88,4.97 -18.1,7.44 -27.71,7.44l-0.99 0c-10.14,0 -19.86,-2.75 -29.15,-8.26 -1.79,-1.23 -3.39,-2.39 -4.81,-3.52 -2.89,-2.26 -4.99,-4.2 -6.24,-5.79 -1.57,-1.66 -3.02,-3.42 -4.36,-5.36 -1.48,-2.22 -2.74,-4.34 -3.8,-6.42 -3.47,-7.16 -5.23,-14.29 -5.23,-21.38l0 -1.55c0,-7.73 2.07,-15.49 6.26,-23.25 1.17,-2.15 2.59,-4.31 4.23,-6.53 1.26,-1.66 3.16,-3.74 5.72,-6.31 3.62,-3.07 6.24,-5.08 7.81,-5.96 9.15,-5.83 19.16,-8.72 30.03,-8.72z"/>
     <path id="_23" class="fil10" d="M9804.37 4742l1 0c14.44,0 26.11,4.06 34.95,12.1 8.5,-8.04 20.16,-12.1 35.07,-12.1l3.47 0c19.63,0 33.57,6.88 41.73,20.57 2.7,5.4 4.04,10.69 4.04,15.95l0 62.19 -0.22 0.32 -21.01 0 -0.22 -0.32 0 -62.02c0,-7.44 -4.47,-12.56 -13.39,-15.38 -2.74,-0.92 -6.24,-1.34 -10.48,-1.34l-4.39 0c-11.58,0 -19.12,3.56 -22.55,10.73 -0.88,1.94 -1.33,4.12 -1.33,6.52l0 61.49 -0.24 0.32 -20.96 0 -0.23 -0.32 0 -59.72c0,-7.38 -2.59,-12.42 -7.7,-15.1 -3.97,-2.61 -9.34,-3.92 -16.08,-3.92l-1.79 0c-9.08,0 -15.51,1.31 -19.33,3.92 -4.91,2.75 -7.36,7.86 -7.36,15.31l0 59.51 -0.34 0.32 -20.89 0 -0.34 -0.32 0 -97.86 0.34 -0.32 20.89 0 0.34 0.32 0 5.57 0.12 0c3.77,-1.94 8.77,-3.7 14.94,-5.36 3.2,-0.7 7.2,-1.06 11.96,-1.06z"/>
     <path class="fil10" d="M7916.81 5092.93c0.07,0 0.99,2.44 2.71,7.24l17.64 49.21 3.01 8.25 15.74 -47.02 5.91 -17.68 19.09 0c0.08,0 0.28,0.6 0.58,1.77l15.05 44.77 6.03 18.16c0.15,0 1.1,-2.39 2.82,-7.23l17.3 -48.68 3.23 -8.79 23.79 0 0 0.11 -17.76 48.15 -16.54 44.56 -2.21 6.21 -21.46 0c-0.15,0 -0.5,-0.95 -0.99,-2.89 -3.2,-9.18 -6.22,-18.07 -9.07,-26.67l-10.14 -30.38 -0.11 0 -15.18 44.95 -5.02 14.99 -21.58 0c-0.07,0 -0.72,-1.83 -1.98,-5.47l-15.89 -42.79 -16.96 -45.69 -1.79 -5.08 23.78 0z"/>
     <path id="_1_25" class="fil10" d="M8085.19 5092.93c0.08,0 1,2.44 2.72,7.24l17.64 49.21 3.01 8.25 15.74 -47.02 5.91 -17.68 19.09 0c0.08,0 0.27,0.6 0.58,1.77l15.05 44.77 6.02 18.16c0.16,0 1.11,-2.39 2.82,-7.23l17.31 -48.68 3.23 -8.79 23.79 0 0 0.11 -17.76 48.15 -16.54 44.56 -2.21 6.21 -21.46 0c-0.15,0 -0.5,-0.95 -1,-2.89 -3.19,-9.18 -6.21,-18.07 -9.06,-26.67l-10.14 -30.38 -0.11 0 -15.18 44.95 -5.03 14.99 -21.57 0c-0.08,0 -0.72,-1.83 -1.98,-5.47l-15.89 -42.79 -16.96 -45.69 -1.8 -5.08 23.78 0z"/>
     <path id="_2_26" class="fil10" d="M8253.58 5092.93c0.08,0 1,2.44 2.71,7.24l17.65 49.21 3.01 8.25 15.74 -47.02 5.91 -17.68 19.09 0c0.08,0 0.27,0.6 0.57,1.77l15.05 44.77 6.03 18.16c0.15,0 1.1,-2.39 2.82,-7.23l17.31 -48.68 3.23 -8.79 23.79 0 0 0.11 -17.76 48.15 -16.54 44.56 -2.22 6.21 -21.45 0c-0.15,0 -0.5,-0.95 -1,-2.89 -3.19,-9.18 -6.21,-18.07 -9.06,-26.67l-10.15 -30.38 -0.1 0 -15.18 44.95 -5.03 14.99 -21.57 0c-0.08,0 -0.73,-1.83 -1.98,-5.47l-15.89 -42.79 -16.96 -45.69 -1.8 -5.08 23.78 0z"/>
     <path id="_3_27" class="fil10" d="M8423.34 5165.92c4.46,0 8.2,1.77 11.25,5.37 1.79,2.4 2.7,4.83 2.7,7.23l0 0.85c0,3.28 -1.45,6.31 -4.38,9.06 -2.13,1.73 -4.26,2.79 -6.36,3.21 -1.11,0.21 -1.94,0.32 -2.56,0.32l-1.55 0c-2.37,0 -4.89,-0.78 -7.48,-2.36 -2.55,-1.73 -4.31,-4.03 -5.26,-6.85 -0.38,-1.23 -0.58,-2.36 -0.58,-3.38l0 -0.85c0,-3.25 1.45,-6.25 4.27,-9 2.82,-2.4 6.14,-3.6 9.95,-3.6z"/>
     <path id="_4_28" class="fil10" d="M8492.79 5142.75l0 0.53c0,6.77 2.17,12.98 6.6,18.69 0.95,1.27 2.32,2.72 4.12,4.34l2.02 1.66c2.35,1.66 4.42,2.86 6.13,3.63 4.53,1.94 9.04,2.9 13.49,2.9 9.12,0 17,-3.25 23.67,-9.74 2.56,-2.75 4.46,-5.4 5.71,-7.94 2.14,-4.41 3.24,-8.96 3.24,-13.65l0 -0.42c0,-7.76 -2.77,-14.78 -8.38,-21.06 -6.71,-6.92 -14.9,-10.34 -24.58,-10.34 -4.31,0 -8.95,1.09 -13.96,3.32 -2.2,1.02 -4.45,2.46 -6.66,4.33 -2.1,1.84 -3.39,3.11 -3.92,3.81 -5,5.86 -7.48,12.53 -7.48,19.94zm-21.46 -102.1l21.35 0 0.11 0.11 0 63.85 0.12 0c1.1,-1.38 2.62,-2.79 4.57,-4.23 8.12,-6 17.38,-9 27.79,-9l0.11 0c12.08,0 23.14,3.64 33.16,10.87 1.33,0.95 3.32,2.64 5.94,5.08 5.11,5.43 8.81,10.9 11.06,16.4 2.59,6.21 3.89,12.63 3.89,19.23 0,8.75 -2.29,17.14 -6.94,25.12 -1.49,2.61 -3.54,5.5 -6.26,8.57 -2.89,3.03 -5.21,5.22 -7.01,6.53 -2.09,1.51 -4.04,2.75 -5.83,3.7 -8.76,5.04 -17.95,7.55 -27.55,7.55l-1.45 0c-3.96,0 -8.77,-0.71 -14.41,-2.15 -2.82,-0.92 -5.37,-1.98 -7.59,-3.21 -1.71,-0.96 -3.69,-2.33 -5.94,-4.02 -1.18,-1.06 -2.4,-2.19 -3.66,-3.43l0 10.34 -21.58 0 0 -151.2 0.12 -0.11z"/>
     <path id="_5_29" class="fil10" d="M8621.63 5130.15l54.15 0 0 -0.1c-1.26,-3.53 -4.15,-7.52 -8.69,-12 -5.67,-4.48 -11.85,-6.7 -18.56,-6.7 -10.18,0 -18.56,4.97 -25.12,14.99l-1.78 3.81zm25.45 -38.77l3.24 0c10.86,0 21.35,4.06 31.36,12.1 4.93,4.48 8.32,8.33 10.18,11.57 5.41,8.89 8.16,18.21 8.16,27.91l0 3.1c0,1.94 -0.15,2.9 -0.46,2.9l-79.95 0c1.7,7.37 4.57,12.87 8.49,16.54 6.03,6 12.89,9 20.55,9 9.68,0 17.79,-4.52 24.35,-13.55 1.26,-2.26 2.02,-3.46 2.21,-3.53 12.8,5.4 19.29,8.15 19.44,8.29 -1.03,2.4 -3.39,6.04 -7.01,10.83 -10.98,11.93 -23.87,17.89 -38.77,17.89l-0.45 0c-15.33,0 -28.51,-6.28 -39.53,-18.91 -7.59,-9.84 -11.4,-20.64 -11.4,-32.35l0 -0.42c0,-16.13 6.68,-29.74 20.02,-40.93 9.83,-6.95 19.66,-10.44 29.57,-10.44z"/>
     <path id="_6_30" class="fil10" d="M8728.71 5040.65l21.43 0 0.12 0.11 0 52.07 27.7 0 0.12 0.1 0 19.87 -0.12 0.1 -27.7 0 0 49.92c0,3.85 1.4,6.42 4.22,7.76 1.94,0.95 3.97,1.45 6.06,1.45 2.9,0 7.01,-0.92 12.39,-2.72l0.88 -0.39 8.04 18.7c-1.8,0.67 -4.69,1.59 -8.69,2.68 -4.76,1.1 -8.96,1.66 -12.5,1.66l-0.23 0c-7.1,0 -13.73,-2.01 -19.9,-6 -1.02,-0.67 -2.4,-1.8 -4.11,-3.31l-1.91 -2.26c-1.18,-1.45 -2.13,-2.86 -2.78,-4.23 -2.02,-4.2 -3.02,-8.44 -3.02,-12.63l0 -50.63 -15.85 0 -0.12 -0.1 0 -19.87 0.12 -0.1 15.85 0 0 -52.18z"/>
     <path id="_7_31" class="fil10" d="M8808.79 5040.65l21.42 0 0.12 0.11 0 52.07 27.7 0 0.12 0.1 0 19.87 -0.12 0.1 -27.7 0 0 49.92c0,3.85 1.41,6.42 4.23,7.76 1.94,0.95 3.96,1.45 6.06,1.45 2.89,0 7.01,-0.92 12.39,-2.72l0.88 -0.39 8.03 18.7c-1.79,0.67 -4.68,1.59 -8.68,2.68 -4.77,1.1 -8.96,1.66 -12.5,1.66l-0.23 0c-7.1,0 -13.73,-2.01 -19.9,-6 -1.03,-0.67 -2.4,-1.8 -4.12,-3.31l-1.9 -2.26c-1.19,-1.45 -2.14,-2.86 -2.78,-4.23 -2.03,-4.2 -3.02,-8.44 -3.02,-12.63l0 -50.63 -15.85 0 -0.12 -0.1 0 -19.87 0.12 -0.1 15.85 0 0 -52.18z"/>
     <path id="_8_32" class="fil10" d="M8900.81 5130.15l54.16 0 0 -0.1c-1.27,-3.53 -4.16,-7.52 -8.7,-12 -5.67,-4.48 -11.85,-6.7 -18.56,-6.7 -10.18,0 -18.56,4.97 -25.12,14.99l-1.78 3.81zm25.45 -38.77l3.24 0c10.86,0 21.35,4.06 31.37,12.1 4.92,4.48 8.31,8.33 10.17,11.57 5.42,8.89 8.16,18.21 8.16,27.91l0 3.1c0,1.94 -0.15,2.9 -0.45,2.9l-79.96 0c1.7,7.37 4.57,12.87 8.49,16.54 6.03,6 12.89,9 20.55,9 9.68,0 17.79,-4.52 24.35,-13.55 1.26,-2.26 2.02,-3.46 2.21,-3.53 12.81,5.4 19.29,8.15 19.44,8.29 -1.03,2.4 -3.39,6.04 -7.01,10.83 -10.98,11.93 -23.87,17.89 -38.77,17.89l-0.45 0c-15.33,0 -28.51,-6.28 -39.53,-18.91 -7.58,-9.84 -11.4,-20.64 -11.4,-32.35l0 -0.42c0,-16.13 6.68,-29.74 20.02,-40.93 9.83,-6.95 19.66,-10.44 29.57,-10.44z"/>
     <path id="_9_33" class="fil10" d="M9052 5092.33l2.78 0c7.35,0 15.02,1.98 22.91,6l0 0.11c-3.12,13.09 -4.84,19.93 -5.15,20.56 -7.17,-4.33 -13.49,-6.52 -18.98,-6.52l-1.79 0c-7.16,0 -13.45,2.43 -18.86,7.34 -4.12,4.62 -6.14,13.37 -6.14,26.24l0 45.48 -0.24 0.31 -20.88 0 -0.35 -0.31 0 -97.05 0.35 -0.22 20.88 0 0.24 0.22 0 7.44c8.19,-6.39 16.57,-9.6 25.23,-9.6z"/>
     <path id="_10_34" class="fil10" d="M9178.96 5142.75c0,-7.41 -2.51,-14.08 -7.51,-19.94 -0.49,-0.7 -1.79,-1.97 -3.89,-3.81 -2.24,-1.87 -4.46,-3.31 -6.7,-4.33 -5,-2.23 -9.65,-3.32 -13.95,-3.32 -9.68,0 -17.88,3.42 -24.59,10.34 -5.57,6.28 -8.34,13.3 -8.34,21.06l0 0.42c0,4.69 1.06,9.24 3.24,13.65 1.25,2.54 3.15,5.19 5.67,7.94 6.71,6.49 14.6,9.74 23.67,9.74 4.46,0 8.96,-0.96 13.53,-2.9 1.72,-0.77 3.74,-1.97 6.13,-3.63l1.99 -1.66c1.8,-1.62 3.17,-3.07 4.15,-4.34 4.39,-5.71 6.6,-11.92 6.6,-18.69l0 -0.53zm21.53 -101.99l0 151.2 -21.53 0 0 -10.34c-1.26,1.24 -2.51,2.37 -3.7,3.43 -2.25,1.69 -4.2,3.06 -5.9,4.02 -2.26,1.23 -4.77,2.29 -7.59,3.21 -5.68,1.44 -10.49,2.15 -14.41,2.15l-1.45 0c-9.6,0 -18.83,-2.51 -27.59,-7.55 -1.79,-0.95 -3.74,-2.19 -5.79,-3.7 -1.79,-1.31 -4.16,-3.5 -7.06,-6.53 -2.66,-3.07 -4.76,-5.96 -6.25,-8.57 -4.6,-7.98 -6.94,-16.37 -6.94,-25.12 0,-6.6 1.3,-13.02 3.94,-19.23 2.2,-5.5 5.91,-10.97 11.05,-16.4 2.59,-2.44 4.57,-4.13 5.91,-5.08 10.06,-7.23 21.11,-10.87 33.15,-10.87l0.11 0c10.45,0 19.71,3 27.83,9 1.91,1.44 3.43,2.85 4.57,4.23l0.12 0 0 -63.85 0.11 -0.11 21.31 0 0.11 0.11z"/>
     <path id="_11_35" class="fil10" d="M9249.06 5130.15l54.16 0 0 -0.1c-1.27,-3.53 -4.16,-7.52 -8.7,-12 -5.67,-4.48 -11.85,-6.7 -18.56,-6.7 -10.18,0 -18.56,4.97 -25.12,14.99l-1.78 3.81zm25.45 -38.77l3.24 0c10.86,0 21.35,4.06 31.37,12.1 4.92,4.48 8.32,8.33 10.17,11.57 5.42,8.89 8.16,18.21 8.16,27.91l0 3.1c0,1.94 -0.15,2.9 -0.45,2.9l-79.96 0c1.7,7.37 4.57,12.87 8.49,16.54 6.03,6 12.89,9 20.55,9 9.68,0 17.79,-4.52 24.35,-13.55 1.26,-2.26 2.02,-3.46 2.21,-3.53 12.81,5.4 19.29,8.15 19.44,8.29 -1.03,2.4 -3.39,6.04 -7.01,10.83 -10.98,11.93 -23.87,17.89 -38.76,17.89l-0.46 0c-15.33,0 -28.51,-6.28 -39.53,-18.91 -7.58,-9.84 -11.4,-20.64 -11.4,-32.35l0 -0.42c0,-16.13 6.68,-29.74 20.02,-40.93 9.83,-6.95 19.66,-10.44 29.57,-10.44z"/>
     <path id="_12_36" class="fil10" d="M9402.15 5092.93l0.99 0c14.45,0 26.11,4.06 34.95,12.1 8.51,-8.04 20.16,-12.1 35.07,-12.1l3.47 0c19.63,0 33.58,6.88 41.73,20.57 2.71,5.4 4.05,10.69 4.05,15.95l0 62.19 -0.23 0.32 -21 0 -0.23 -0.32 0 -62.02c0,-7.44 -4.46,-12.56 -13.39,-15.38 -2.74,-0.92 -6.24,-1.34 -10.48,-1.34l-4.38 0c-11.58,0 -19.13,3.56 -22.56,10.73 -0.88,1.94 -1.33,4.12 -1.33,6.52l0 61.49 -0.24 0.32 -20.96 0 -0.22 -0.32 0 -59.72c0,-7.38 -2.6,-12.42 -7.71,-15.1 -3.96,-2.61 -9.33,-3.92 -16.07,-3.92l-1.8 0c-9.07,0 -15.51,1.31 -19.32,3.92 -4.92,2.75 -7.36,7.86 -7.36,15.31l0 59.51 -0.35 0.32 -20.88 0 -0.35 -0.32 0 -97.86 0.35 -0.32 20.88 0 0.35 0.32 0 5.57 0.12 0c3.77,-1.94 8.76,-3.7 14.94,-5.36 3.2,-0.7 7.19,-1.06 11.96,-1.06z"/>
     <path id="_13_37" class="fil10" d="M9570.55 5143.06c0,7.52 2.62,14.33 7.92,20.47 2.33,2.43 4.11,4.02 5.38,4.76 5.86,4.13 12.27,6.21 19.21,6.21 8.46,0 16.01,-2.97 22.52,-8.89 2.63,-2.54 4.46,-4.77 5.49,-6.64 3.05,-5.08 4.57,-10.37 4.57,-15.8l0 -0.32c0,-7.9 -2.94,-15.03 -8.8,-21.38 -2.55,-2.47 -4.27,-3.88 -5.15,-4.23 -1.25,-0.99 -2.47,-1.73 -3.58,-2.29 -4.84,-2.4 -9.87,-3.6 -15.05,-3.6 -7.89,0 -15.14,2.72 -21.7,8.15 -2.28,2.15 -3.73,3.74 -4.34,4.76 -4.3,5.57 -6.47,11.85 -6.47,18.8zm32.51 -51.68c12.12,0 23.2,3.64 33.27,10.87 1.41,0.95 3.43,2.68 6.02,5.15 5.14,5.32 8.76,10.76 10.93,16.33 2.6,6.21 3.94,12.67 3.94,19.33 0,8.68 -2.29,17.04 -6.83,25.02 -1.56,2.61 -3.7,5.5 -6.37,8.57 -2.89,3.1 -5.26,5.29 -7.04,6.53 -1.99,1.51 -3.89,2.78 -5.68,3.81 -8.88,4.97 -18.11,7.44 -27.71,7.44l-1 0c-10.13,0 -19.86,-2.75 -29.15,-8.26 -1.79,-1.23 -3.39,-2.39 -4.8,-3.52 -2.9,-2.26 -5,-4.2 -6.25,-5.79 -1.57,-1.66 -3.01,-3.42 -4.35,-5.36 -1.48,-2.22 -2.75,-4.34 -3.81,-6.42 -3.46,-7.16 -5.23,-14.29 -5.23,-21.38l0 -1.55c0,-7.73 2.07,-15.49 6.26,-23.25 1.18,-2.15 2.59,-4.31 4.24,-6.53 1.25,-1.66 3.15,-3.74 5.71,-6.31 3.62,-3.07 6.24,-5.08 7.81,-5.96 9.15,-5.83 19.17,-8.72 30.04,-8.72z"/>
     <path id="_14_38" class="fil10" d="M9698.3 5165.92c4.46,0 8.2,1.77 11.25,5.37 1.79,2.4 2.7,4.83 2.7,7.23l0 0.85c0,3.28 -1.45,6.31 -4.38,9.06 -2.13,1.73 -4.26,2.79 -6.36,3.21 -1.11,0.21 -1.94,0.32 -2.56,0.32l-1.55 0c-2.37,0 -4.89,-0.78 -7.48,-2.36 -2.55,-1.73 -4.31,-4.03 -5.26,-6.85 -0.38,-1.23 -0.58,-2.36 -0.58,-3.38l0 -0.85c0,-3.25 1.45,-6.25 4.27,-9 2.82,-2.4 6.14,-3.6 9.95,-3.6z"/>
     <path id="_15_39" class="fil10" d="M9748.77 5040.65l21.42 0 0.12 0.11 0 52.07 27.7 0 0.12 0.1 0 19.87 -0.12 0.1 -27.7 0 0 49.92c0,3.85 1.4,6.42 4.22,7.76 1.95,0.95 3.97,1.45 6.07,1.45 2.89,0 7.01,-0.92 12.39,-2.72l0.87 -0.39 8.04 18.7c-1.79,0.67 -4.69,1.59 -8.69,2.68 -4.76,1.1 -8.95,1.66 -12.5,1.66l-0.22 0c-7.1,0 -13.73,-2.01 -19.9,-6 -1.03,-0.67 -2.4,-1.8 -4.12,-3.31l-1.9 -2.26c-1.19,-1.45 -2.14,-2.86 -2.79,-4.23 -2.02,-4.2 -3.01,-8.44 -3.01,-12.63l0 -50.63 -15.85 0 -0.12 -0.1 0 -19.87 0.12 -0.1 15.85 0 0 -52.18z"/>
     <path id="_16_40" class="fil10" d="M9826.6 5040.65l20.88 0 0.35 0.32 0 92.08 0.12 0 45.65 -40.12 31.03 0 0 0.11 -49.36 43.53 47.27 55.28 -0.12 0.11 -27.02 0c-1.95,-1.94 -13.84,-15.77 -35.64,-41.56l-0.11 0c-6.56,5.58 -10.48,9.07 -11.82,10.44l0 30.8 -0.35 0.32 -20.88 0 -0.35 -0.32 0 -150.67 0.35 -0.32z"/>
    </g>
    <path class="fil9" d="M10069.8 4463.87c2.51,1.06 4.8,0.64 6.86,-1.69l8.46 -9.52c2.52,-2.76 4.57,-3.81 7.09,-2.76l27.44 13.97c1.15,0.85 1.6,2.12 1.6,3.39 0,3.81 -0.45,7.83 -2.52,12.07 0,0.63 -0.68,1.48 -2.05,2.75 -1.6,1.48 -3.21,2.75 -4.34,3.38 -3.44,2.33 -7.78,4.24 -12.59,5.72 -4.57,1.27 -8.23,2.12 -10.28,1.69 -23.56,-3.6 -44.14,-13.97 -62.21,-30.48 -18.29,-16.51 -29.27,-35.56 -32.69,-57.78 -0.47,-1.91 0,-5.08 1.59,-9.53 1.6,-4.23 3.89,-8.04 5.95,-11.22 0.91,-1.27 2.06,-2.54 3.43,-4.02 1.6,-1.48 2.97,-2.33 3.43,-2.33 4.57,-1.27 8.92,-2.11 12.8,-2.11 1.61,-0.22 2.98,0.21 4.12,1.9l14.86 24.98c1.15,1.9 0.23,4.23 -2.74,6.35l-10.51 7.62c-2.52,1.9 -3.21,4.23 -1.61,6.14 5.48,10.79 11.44,18.84 17.83,24.76 6.41,5.93 15.11,11.64 26.08,16.72zm-122.12 -30.69c0,56.52 49.39,102.45 110.68,102.45 61.29,0 110.69,-45.93 110.69,-102.45 0,-56.73 -49.4,-102.66 -110.69,-102.23 -61.29,0.21 -110.68,45.5 -110.68,102.23z"/>
    <path class="fil9" d="M10116.98 4750.5c2.75,0 5.49,0.85 7.54,2.76 2.52,2.32 3.21,4.65 3.21,7.19l0 74.51c0,2.96 -0.69,4.87 -3.21,6.99 -2.05,2.32 -4.79,3.17 -7.54,3.17 -17.38,0 -34.53,0 -51.91,0 -17.16,0 -34.53,0 -51.46,0 -3.2,0 -5.94,-1.06 -8,-3.17 -2.51,-1.91 -2.97,-4.03 -2.97,-6.99l0 -74.51c0,-2.54 0.46,-4.87 2.97,-7.19 2.06,-1.91 4.8,-2.76 8,-2.76l103.37 0zm-43.9 62.02l45.28 -44.87c1.14,-1.06 1.59,-2.33 0.45,-3.17 -1.6,-0.64 -2.74,-0.43 -4.57,1.27l-40.48 35.13c-2.28,2.75 -5.49,4.02 -8.69,4.02 -3.43,0 -6.18,-1.27 -8.7,-4.02l-40.47 -35.13c-1.82,-1.7 -3.2,-2.33 -4.57,-1.27 -0.92,0.84 -0.69,2.11 0.68,3.17l45.06 44.87c2.06,2.76 4.8,4.24 8,4.24 3.2,0 5.94,-1.48 8.01,-4.24zm-118.24 -15.45c0,56.52 49.39,102.45 110.68,102.45 61.3,0 110.69,-45.93 110.69,-102.45 0,-56.73 -49.39,-102.66 -110.69,-102.23 -61.29,0.21 -110.68,45.5 -110.68,102.23z"/>
    <ellipse class="fil7" cx="10055.22" cy="5121.46" rx="107.93" ry="99.9"/>
    <g>
     <ellipse class="fil7 str2" cx="10047.9" cy="5117.79" rx="22.39" ry="20.72"/>
     <line class="fil5 str2" x1="10066.17" y1="5131.87" x2="10084.92" y2= "5145.86" />
    </g>
   </g>
   <g>
    <g style="clip-path:url(#id6)">
     <image x="1735.87" y="6115.57" width="9385.51" height="5654.89" xlink:href="VISTING CARD_Images\VISTING CARD_ImgID3.png"/>
    </g>
   </g>
   <g>
    <rect class="fil1" x="2388.35" y="6778.43" width="8080.55" height="4339.54" rx="491.21" ry="508"/>
    <path class="fil0" d="M6428.62 6778.44c0,0 -448.47,404.89 -171.11,1210.59 277.36,805.7 1393.67,1064.32 1393.67,1064.32l811.05 -2274.91 -2033.61 0z"/>
    <g style="clip-path:url(#id7)">
     <polygon class="fil0" style="mask:url(#id8)" points="2388.35,6768.05 10468.9,6768.05 10468.9,11116.57 2388.35,11116.57 "/>
    </g>
    <g style="clip-path:url(#id10)">
     <g>
      <g>
       <circle class="fil3" transform="matrix(-1.1339 -0.774011 -0.692507 1.28021 9245.72 8735.11)" r="1826.24"/>
       <circle class="fil4" transform="matrix(-1.02774 -0.701543 -0.62767 1.16035 10743.8 8424.43)" r="1826.24"/>
       <circle class="fil3" transform="matrix(-0.840787 -0.573929 -0.513493 0.949278 10718.2 8703.9)" r="1826.24"/>
      </g>
     </g>
    </g>
    <path class="fil5" d="M9959.85 6768.05l-7062.45 0c-279.98,0 -509.05,229.07 -509.05,509.05l0 3330.42c0,279.98 229.07,509.05 509.05,509.05l7062.45 0c279.98,0 509.05,-229.07 509.05,-509.05l0 -3330.42c0,-279.98 -229.07,-509.05 -509.05,-509.05z"/>
    <path class="fil11" d="M10468.9 8179.81c0,0 -441.06,182.88 -500.08,607.84 0,0 90.24,-337.23 500.08,-505.87l0 -101.97z"/>
    <g>
     <g>
      <g style="clip-path:url(#id11)">
       <image x="4240.9" y="8239.83" width="671.82" height="722.52" xlink:href="VISTING CARD_Images\VISTING CARD_ImgID4.png"/>
      </g>
      <path class="fil7" d="M4335.97 8626.44c0,105.19 -1.13,130.45 40.54,200.3 43.95,73.63 122.86,124.07 209.71,135.61l75.67 0c67.81,-9.09 135.78,-43.28 192.03,-109.51 33.85,-39.85 53.43,-92.82 58.81,-147.78l0 -62.75c-5.54,-56.58 -26.15,-110.82 -61.79,-150.57 -121.32,-135.31 -211.4,-106.15 -381.87,-106.15l0 240.85 -133.1 0z"/>
      <polygon class="fil7" points="4335.97,8626.44 4335.97,8385.59 4329.63,8385.59 4469.07,8385.59 4469.07,8239.82 4240.9,8239.82 4240.9,8626.44 "/>
      <polygon class="fil1" points="4335.97,8626.44 4469.07,8626.44 4469.07,8385.59 4329.63,8385.59 4335.97,8385.59 "/>
     </g>
     <g style="clip-path:url(#id12)">
      <image x="3505.67" y="9165.04" width="2366.32" height="479.76" xlink:href="VISTING CARD_Images\VISTING CARD_ImgID5.png"/>
     </g>
    </g>
   </g>
  </g>
 </g>
</svg>
